<mxfile host="app.diagrams.net" modified="2023-03-25T00:57:01.460Z" agent="Mozilla/5.0 (Windows NT 10.0; Win64; x64) AppleWebKit/537.36 (KHTML, like Gecko) Chrome/108.0.0.0 YaBrowser/23.1.5.708 Yowser/2.5 Safari/537.36" etag="TVh1H1COP23jouaGDhpW" version="21.1.1" type="device">
  <diagram name="Страница 1" id="q8GA-Cu9wi0JZDHDU0Ez">
    <mxGraphModel dx="979" dy="1733" grid="1" gridSize="10" guides="1" tooltips="1" connect="1" arrows="1" fold="1" page="1" pageScale="1" pageWidth="827" pageHeight="1169" math="0" shadow="0">
      <root>
        <mxCell id="0" />
        <mxCell id="1" parent="0" />
        <mxCell id="3cQ0suxEUUUy-fI5HbAc-6" value="Поставщики медикаментов" style="rounded=0;whiteSpace=wrap;html=1;labelBackgroundColor=#FFFFFF;" parent="1" vertex="1">
          <mxGeometry x="80" y="100" width="220" height="40" as="geometry" />
        </mxCell>
        <mxCell id="3cQ0suxEUUUy-fI5HbAc-7" value="&lt;table style=&quot;border-collapse: collapse; border: none; font-size: 8px;&quot; cellspacing=&quot;0&quot; border=&quot;1&quot; class=&quot;MsoTableGrid&quot;&gt;&lt;tbody&gt;&lt;tr&gt;&lt;td valign=&quot;top&quot; width=&quot;120&quot;&gt;&lt;p style=&quot;margin-bottom:0,0000pt;text-align:justify;text-justify:inter-ideograph;&quot; align=&quot;justify&quot; class=&quot;MsoNormal&quot;&gt;ID_P&lt;span style=&quot;font-family: &amp;quot;Times New Roman&amp;quot;; font-variant-numeric: normal; font-variant-east-asian: normal;&quot;&gt;rovider&lt;/span&gt;&lt;span style=&quot;font-family: &amp;quot;Times New Roman&amp;quot;; font-variant-numeric: normal; font-variant-east-asian: normal;&quot;&gt;&lt;/span&gt;&lt;/p&gt;&lt;/td&gt;&lt;/tr&gt;&lt;tr&gt;&lt;td style=&quot;width:90,1500pt;padding:0,0000pt 5,4000pt 0,0000pt 5,4000pt ;border-left:1,0000pt solid rgb(0,0,0);&lt;br/&gt;mso-border-left-alt:0,5000pt solid rgb(0,0,0);border-right:1,0000pt solid rgb(0,0,0);mso-border-right-alt:0,5000pt solid rgb(0,0,0);&lt;br/&gt;border-top:none;mso-border-top-alt:0,5000pt solid rgb(0,0,0);border-bottom:1,0000pt solid rgb(0,0,0);&lt;br/&gt;mso-border-bottom-alt:0,5000pt solid rgb(0,0,0);&quot; valign=&quot;top&quot; width=&quot;120&quot;&gt;&lt;p style=&quot;margin-bottom:0,0000pt;text-align:justify;text-justify:inter-ideograph;&quot; align=&quot;justify&quot; class=&quot;MsoNormal&quot;&gt;&lt;span style=&quot;font-family: &amp;quot;Times New Roman&amp;quot;; font-variant-numeric: normal; font-variant-east-asian: normal;&quot;&gt;INN_P&lt;/span&gt;&lt;span style=&quot;font-family: &amp;quot;Times New Roman&amp;quot;; font-variant-numeric: normal; font-variant-east-asian: normal;&quot;&gt;rovider&lt;/span&gt;&lt;span style=&quot;font-family:&#39;Times New Roman&#39;;mso-fareast-font-family:Helvetica;font-size:14,0000pt;&quot;&gt;&lt;/span&gt;&lt;/p&gt;&lt;/td&gt;&lt;/tr&gt;&lt;tr&gt;&lt;td style=&quot;width:90,1500pt;padding:0,0000pt 5,4000pt 0,0000pt 5,4000pt ;border-left:1,0000pt solid rgb(0,0,0);&lt;br/&gt;mso-border-left-alt:0,5000pt solid rgb(0,0,0);border-right:1,0000pt solid rgb(0,0,0);mso-border-right-alt:0,5000pt solid rgb(0,0,0);&lt;br/&gt;border-top:none;mso-border-top-alt:0,5000pt solid rgb(0,0,0);border-bottom:1,0000pt solid rgb(0,0,0);&lt;br/&gt;mso-border-bottom-alt:0,5000pt solid rgb(0,0,0);&quot; valign=&quot;top&quot; width=&quot;120&quot;&gt;&lt;p style=&quot;margin-bottom:0,0000pt;text-align:justify;text-justify:inter-ideograph;&quot; align=&quot;justify&quot; class=&quot;MsoNormal&quot;&gt;&lt;span style=&quot;font-family:&#39;Times New Roman&#39;;mso-fareast-font-family:Calibri;font-size:14,0000pt;&quot;&gt;Legal&lt;/span&gt;&lt;span style=&quot;font-family:&#39;Times New Roman&#39;;mso-fareast-font-family:Calibri;font-size:14,0000pt;&quot;&gt;_&lt;/span&gt;&lt;span style=&quot;font-family:&#39;Times New Roman&#39;;mso-fareast-font-family:Calibri;font-size:14,0000pt;&quot;&gt;name&lt;/span&gt;&lt;span style=&quot;font-family:&#39;Times New Roman&#39;;mso-fareast-font-family:Calibri;font-size:14,0000pt;&quot;&gt;&lt;/span&gt;&lt;/p&gt;&lt;/td&gt;&lt;/tr&gt;&lt;tr&gt;&lt;td style=&quot;width:90,1500pt;padding:0,0000pt 5,4000pt 0,0000pt 5,4000pt ;border-left:1,0000pt solid rgb(0,0,0);&lt;br/&gt;mso-border-left-alt:0,5000pt solid rgb(0,0,0);border-right:1,0000pt solid rgb(0,0,0);mso-border-right-alt:0,5000pt solid rgb(0,0,0);&lt;br/&gt;border-top:none;mso-border-top-alt:0,5000pt solid rgb(0,0,0);border-bottom:1,0000pt solid rgb(0,0,0);&lt;br/&gt;mso-border-bottom-alt:0,5000pt solid rgb(0,0,0);&quot; valign=&quot;top&quot; width=&quot;120&quot;&gt;&lt;p style=&quot;margin-bottom:0,0000pt;text-align:justify;text-justify:inter-ideograph;&quot; align=&quot;justify&quot; class=&quot;MsoNormal&quot;&gt;&lt;span style=&quot;font-family: &amp;quot;Times New Roman&amp;quot;; font-variant-numeric: normal; font-variant-east-asian: normal;&quot;&gt;Legal&lt;/span&gt;&lt;span style=&quot;font-family: &amp;quot;Times New Roman&amp;quot;; font-variant-numeric: normal; font-variant-east-asian: normal;&quot;&gt;_&lt;/span&gt;&lt;span style=&quot;font-family: &amp;quot;Times New Roman&amp;quot;; font-variant-numeric: normal; font-variant-east-asian: normal;&quot;&gt;address&lt;/span&gt;&lt;span style=&quot;font-family:&#39;Times New Roman&#39;;mso-fareast-font-family:Helvetica;font-size:14,0000pt;&quot;&gt;&lt;/span&gt;&lt;/p&gt;&lt;/td&gt;&lt;/tr&gt;&lt;tr&gt;&lt;td style=&quot;width:90,1500pt;padding:0,0000pt 5,4000pt 0,0000pt 5,4000pt ;border-left:1,0000pt solid rgb(0,0,0);&lt;br/&gt;mso-border-left-alt:0,5000pt solid rgb(0,0,0);border-right:1,0000pt solid rgb(0,0,0);mso-border-right-alt:0,5000pt solid rgb(0,0,0);&lt;br/&gt;border-top:none;mso-border-top-alt:0,5000pt solid rgb(0,0,0);border-bottom:1,0000pt solid rgb(0,0,0);&lt;br/&gt;mso-border-bottom-alt:0,5000pt solid rgb(0,0,0);&quot; valign=&quot;top&quot; width=&quot;120&quot;&gt;&lt;p style=&quot;margin-bottom:0,0000pt;text-align:justify;text-justify:inter-ideograph;&quot; align=&quot;justify&quot; class=&quot;MsoNormal&quot;&gt;&lt;span style=&quot;font-family: &amp;quot;Times New Roman&amp;quot;; font-variant-numeric: normal; font-variant-east-asian: normal;&quot;&gt;OKPO&lt;/span&gt;&lt;span style=&quot;font-family: &amp;quot;Times New Roman&amp;quot;; font-variant-numeric: normal; font-variant-east-asian: normal;&quot;&gt;_&lt;/span&gt;&lt;span style=&quot;font-family: &amp;quot;Times New Roman&amp;quot;; font-variant-numeric: normal; font-variant-east-asian: normal;&quot;&gt;code&lt;/span&gt;&lt;span style=&quot;font-family:&#39;Times New Roman&#39;;mso-fareast-font-family:Helvetica;font-size:14,0000pt;&quot;&gt;&lt;/span&gt;&lt;/p&gt;&lt;/td&gt;&lt;/tr&gt;&lt;tr&gt;&lt;td style=&quot;width:90,1500pt;padding:0,0000pt 5,4000pt 0,0000pt 5,4000pt ;border-left:1,0000pt solid rgb(0,0,0);&lt;br/&gt;mso-border-left-alt:0,5000pt solid rgb(0,0,0);border-right:1,0000pt solid rgb(0,0,0);mso-border-right-alt:0,5000pt solid rgb(0,0,0);&lt;br/&gt;border-top:none;mso-border-top-alt:0,5000pt solid rgb(0,0,0);border-bottom:1,0000pt solid rgb(0,0,0);&lt;br/&gt;mso-border-bottom-alt:0,5000pt solid rgb(0,0,0);&quot; valign=&quot;top&quot; width=&quot;120&quot;&gt;&lt;p style=&quot;margin-bottom:0,0000pt;text-align:justify;text-justify:inter-ideograph;&quot; align=&quot;justify&quot; class=&quot;MsoNormal&quot;&gt;&lt;span style=&quot;font-family: &amp;quot;Times New Roman&amp;quot;; font-variant-numeric: normal; font-variant-east-asian: normal;&quot;&gt;Contract&lt;/span&gt;&lt;span style=&quot;font-family: &amp;quot;Times New Roman&amp;quot;; font-variant-numeric: normal; font-variant-east-asian: normal;&quot;&gt;_&lt;/span&gt;&lt;span style=&quot;font-family: &amp;quot;Times New Roman&amp;quot;; font-variant-numeric: normal; font-variant-east-asian: normal;&quot;&gt;number&lt;/span&gt;&lt;span style=&quot;font-family:&#39;Times New Roman&#39;;mso-fareast-font-family:Helvetica;font-size:14,0000pt;&quot;&gt;&lt;/span&gt;&lt;/p&gt;&lt;/td&gt;&lt;/tr&gt;&lt;tr&gt;&lt;td style=&quot;width:90,1500pt;padding:0,0000pt 5,4000pt 0,0000pt 5,4000pt ;border-left:1,0000pt solid rgb(0,0,0);&lt;br/&gt;mso-border-left-alt:0,5000pt solid rgb(0,0,0);border-right:1,0000pt solid rgb(0,0,0);mso-border-right-alt:0,5000pt solid rgb(0,0,0);&lt;br/&gt;border-top:none;mso-border-top-alt:0,5000pt solid rgb(0,0,0);border-bottom:1,0000pt solid rgb(0,0,0);&lt;br/&gt;mso-border-bottom-alt:0,5000pt solid rgb(0,0,0);&quot; valign=&quot;top&quot; width=&quot;120&quot;&gt;&lt;p style=&quot;margin-bottom:0,0000pt;text-align:justify;text-justify:inter-ideograph;&quot; align=&quot;justify&quot; class=&quot;MsoNormal&quot;&gt;&lt;span style=&quot;font-family:&#39;Times New Roman&#39;;mso-fareast-font-family:Helvetica;font-size:14,0000pt;&quot;&gt;Number_phone&lt;/span&gt;&lt;span style=&quot;font-family:&#39;Times New Roman&#39;;mso-fareast-font-family:Helvetica;font-size:14,0000pt;&quot;&gt;&lt;/span&gt;&lt;/p&gt;&lt;/td&gt;&lt;/tr&gt;&lt;/tbody&gt;&lt;/table&gt;" style="rounded=0;whiteSpace=wrap;html=1;labelBackgroundColor=#FFFFFF;" parent="1" vertex="1">
          <mxGeometry x="80" y="140" width="220" height="210" as="geometry" />
        </mxCell>
        <mxCell id="3cQ0suxEUUUy-fI5HbAc-8" value="Препараты" style="rounded=0;whiteSpace=wrap;html=1;labelBackgroundColor=#FFFFFF;" parent="1" vertex="1">
          <mxGeometry x="490" y="60" width="220" height="50" as="geometry" />
        </mxCell>
        <mxCell id="3cQ0suxEUUUy-fI5HbAc-9" value="&lt;font style=&quot;letter-spacing: 0px; text-align: left; font-size: 7px; font-family: themed; direction: ltr; line-height: 19.2px; opacity: 1;&quot;&gt;&lt;table cellspacing=&quot;0&quot; border=&quot;1&quot; class=&quot;MsoTableGrid&quot;&gt;&lt;tbody&gt;&lt;tr&gt;&lt;td valign=&quot;top&quot; width=&quot;133&quot;&gt;&lt;p style=&quot;margin-bottom:0,0000pt;text-align:justify;text-justify:inter-ideograph;&quot; align=&quot;justify&quot; class=&quot;MsoNormal&quot;&gt;ID&lt;span style=&quot;font-family: &amp;quot;Times New Roman&amp;quot;; font-variant-numeric: normal; font-variant-east-asian: normal;&quot;&gt;_&lt;/span&gt;&lt;span style=&quot;font-family: &amp;quot;Times New Roman&amp;quot;; font-variant-numeric: normal; font-variant-east-asian: normal;&quot;&gt;Medicine&lt;/span&gt;&lt;span style=&quot;font-family:&#39;Times New Roman&#39;;mso-fareast-font-family:Helvetica;font-size:14,0000pt;&quot;&gt;&lt;/span&gt;&lt;/p&gt;&lt;/td&gt;&lt;/tr&gt;&lt;tr&gt;&lt;td valign=&quot;top&quot; width=&quot;133&quot;&gt;&lt;p style=&quot;margin-bottom:0,0000pt;text-align:justify;text-justify:inter-ideograph;&quot; align=&quot;justify&quot; class=&quot;MsoNormal&quot;&gt;&lt;span style=&quot;font-family: &amp;quot;Times New Roman&amp;quot;; font-variant-numeric: normal; font-variant-east-asian: normal;&quot;&gt;Name_m&lt;/span&gt;&lt;span style=&quot;font-family: &amp;quot;Times New Roman&amp;quot;; font-variant-numeric: normal; font-variant-east-asian: normal;&quot;&gt;edicine&lt;/span&gt;&lt;span style=&quot;font-family:&#39;Times New Roman&#39;;mso-fareast-font-family:Helvetica;font-size:14,0000pt;&quot;&gt;&lt;/span&gt;&lt;/p&gt;&lt;/td&gt;&lt;/tr&gt;&lt;tr&gt;&lt;td valign=&quot;top&quot; width=&quot;133&quot;&gt;&lt;p style=&quot;margin-bottom:0,0000pt;text-align:justify;text-justify:inter-ideograph;&quot; align=&quot;justify&quot; class=&quot;MsoNormal&quot;&gt;&lt;span style=&quot;font-family: &amp;quot;Times New Roman&amp;quot;; font-variant-numeric: normal; font-variant-east-asian: normal;&quot;&gt;Price&lt;/span&gt;&lt;span style=&quot;font-family:&#39;Times New Roman&#39;;mso-fareast-font-family:Helvetica;font-size:14,0000pt;&quot;&gt;&lt;/span&gt;&lt;/p&gt;&lt;/td&gt;&lt;/tr&gt;&lt;tr&gt;&lt;td valign=&quot;top&quot; width=&quot;133&quot;&gt;&lt;p style=&quot;margin-bottom:0,0000pt;text-align:justify;text-justify:inter-ideograph;&quot; align=&quot;justify&quot; class=&quot;MsoNormal&quot;&gt;&lt;span style=&quot;font-family: &amp;quot;Times New Roman&amp;quot;; font-variant-numeric: normal; font-variant-east-asian: normal;&quot;&gt;Percentage&lt;/span&gt;&lt;span style=&quot;font-family: &amp;quot;Times New Roman&amp;quot;; font-variant-numeric: normal; font-variant-east-asian: normal;&quot;&gt;_&lt;/span&gt;&lt;span style=&quot;font-family: &amp;quot;Times New Roman&amp;quot;; font-variant-numeric: normal; font-variant-east-asian: normal;&quot;&gt;&amp;nbsp;social&lt;/span&gt;&lt;span style=&quot;font-family: &amp;quot;Times New Roman&amp;quot;; font-variant-numeric: normal; font-variant-east-asian: normal;&quot;&gt;_&lt;/span&gt;&lt;span style=&quot;font-family: &amp;quot;Times New Roman&amp;quot;; font-variant-numeric: normal; font-variant-east-asian: normal;&quot;&gt;discount&lt;/span&gt;&lt;span style=&quot;font-family:&#39;Times New Roman&#39;;mso-fareast-font-family:Calibri;font-size:14,0000pt;&quot;&gt;&lt;br&gt;&lt;/span&gt;&lt;span style=&quot;font-family: &amp;quot;Times New Roman&amp;quot;; font-variant-numeric: normal; font-variant-east-asian: normal;&quot;&gt;&lt;/span&gt;&lt;/p&gt;&lt;/td&gt;&lt;/tr&gt;&lt;tr&gt;&lt;td valign=&quot;top&quot; width=&quot;133&quot;&gt;&lt;p style=&quot;margin-bottom:0,0000pt;text-align:justify;text-justify:inter-ideograph;&quot; align=&quot;justify&quot; class=&quot;MsoNormal&quot;&gt;&lt;span style=&quot;font-family: &amp;quot;Times New Roman&amp;quot;; font-variant-numeric: normal; font-variant-east-asian: normal;&quot;&gt;ID_P&lt;/span&gt;&lt;span style=&quot;font-family: &amp;quot;Times New Roman&amp;quot;; font-variant-numeric: normal; font-variant-east-asian: normal;&quot;&gt;rovider&lt;/span&gt;&lt;span style=&quot;font-family: &amp;quot;Times New Roman&amp;quot;; font-variant-numeric: normal; font-variant-east-asian: normal;&quot;&gt;&amp;nbsp;&lt;/span&gt;&lt;span style=&quot;font-family:&#39;Times New Roman&#39;;mso-fareast-font-family:Helvetica;font-size:14,0000pt;&quot;&gt;&lt;/span&gt;&lt;/p&gt;&lt;/td&gt;&lt;/tr&gt;&lt;tr&gt;&lt;td valign=&quot;top&quot; width=&quot;133&quot;&gt;&lt;p style=&quot;margin-bottom:0,0000pt;text-align:justify;text-justify:inter-ideograph;&quot; align=&quot;justify&quot; class=&quot;MsoNormal&quot;&gt;&lt;span style=&quot;font-family: &amp;quot;Times New Roman&amp;quot;; font-variant-numeric: normal; font-variant-east-asian: normal;&quot;&gt;Delivery&lt;/span&gt;&lt;span style=&quot;font-family: &amp;quot;Times New Roman&amp;quot;; font-variant-numeric: normal; font-variant-east-asian: normal;&quot;&gt;_&lt;/span&gt;&lt;span style=&quot;font-family: &amp;quot;Times New Roman&amp;quot;; font-variant-numeric: normal; font-variant-east-asian: normal;&quot;&gt;number&lt;/span&gt;&lt;span style=&quot;font-family:&#39;Times New Roman&#39;;mso-fareast-font-family:Helvetica;font-size:14,0000pt;&quot;&gt;&lt;/span&gt;&lt;/p&gt;&lt;/td&gt;&lt;/tr&gt;&lt;tr&gt;&lt;td valign=&quot;top&quot; width=&quot;133&quot;&gt;&lt;p style=&quot;margin-bottom:0,0000pt;text-align:justify;text-justify:inter-ideograph;&quot; align=&quot;justify&quot; class=&quot;MsoNormal&quot;&gt;&lt;span style=&quot;font-family: &amp;quot;Times New Roman&amp;quot;; font-variant-numeric: normal; font-variant-east-asian: normal;&quot;&gt;Quantity&lt;/span&gt;&lt;span style=&quot;font-family: &amp;quot;Times New Roman&amp;quot;; font-variant-numeric: normal; font-variant-east-asian: normal;&quot;&gt;_&lt;/span&gt;&lt;span style=&quot;font-family: &amp;quot;Times New Roman&amp;quot;; font-variant-numeric: normal; font-variant-east-asian: normal;&quot;&gt;stock&lt;/span&gt;&lt;span style=&quot;font-family: &amp;quot;Times New Roman&amp;quot;; font-variant-numeric: normal; font-variant-east-asian: normal;&quot;&gt;&lt;/span&gt;&lt;/p&gt;&lt;/td&gt;&lt;/tr&gt;&lt;/tbody&gt;&lt;/table&gt;&lt;/font&gt;" style="rounded=0;whiteSpace=wrap;html=1;labelBackgroundColor=#FFFFFF;" parent="1" vertex="1">
          <mxGeometry x="490" y="110" width="220" height="260" as="geometry" />
        </mxCell>
        <mxCell id="3cQ0suxEUUUy-fI5HbAc-10" value="&lt;font style=&quot;letter-spacing: 0px; font-size: 16px; font-family: calibri; direction: ltr; line-height: 19.2px; opacity: 1;&quot;&gt;Заказ&lt;/font&gt;&lt;font style=&quot;letter-spacing: 0px; font-size: 16px; font-family: themed; direction: ltr; line-height: 19.2px; opacity: 1;&quot;&gt;&amp;nbsp;&lt;/font&gt;&lt;font style=&quot;letter-spacing: 0px; font-size: 16px; font-family: themed; direction: ltr; line-height: 19.2px; opacity: 1;&quot;&gt;на&lt;/font&gt;&lt;font style=&quot;letter-spacing: 0px; font-size: 16px; font-family: themed; direction: ltr; line-height: 19.2px; opacity: 1;&quot;&gt;&amp;nbsp;поставку&lt;/font&gt;" style="rounded=0;whiteSpace=wrap;html=1;labelBackgroundColor=#FFFFFF;" parent="1" vertex="1">
          <mxGeometry x="470" y="-340" width="230" height="60" as="geometry" />
        </mxCell>
        <mxCell id="3cQ0suxEUUUy-fI5HbAc-11" value="&lt;font style=&quot;letter-spacing: 0px; text-align: left; direction: ltr; line-height: 19.2px; opacity: 1; font-size: 7px; font-family: themed;&quot;&gt;&lt;table cellspacing=&quot;0&quot; border=&quot;1&quot; class=&quot;MsoTableGrid&quot;&gt;&lt;tbody&gt;&lt;tr&gt;&lt;td valign=&quot;top&quot; width=&quot;120&quot;&gt;&lt;p style=&quot;margin-bottom:0,0000pt;text-align:justify;text-justify:inter-ideograph;&quot; align=&quot;justify&quot; class=&quot;MsoNormal&quot;&gt;ID&lt;span style=&quot;font-family: &amp;quot;Times New Roman&amp;quot;; font-variant-numeric: normal; font-variant-east-asian: normal;&quot;&gt;_&lt;/span&gt;&lt;span style=&quot;font-family: &amp;quot;Times New Roman&amp;quot;; font-variant-numeric: normal; font-variant-east-asian: normal;&quot;&gt;Order&lt;/span&gt;&lt;span style=&quot;font-family:&#39;Times New Roman&#39;;mso-fareast-font-family:Calibri;font-size:14,0000pt;&quot;&gt;&lt;br&gt;&lt;/span&gt;&lt;span style=&quot;font-family: &amp;quot;Times New Roman&amp;quot;; font-variant-numeric: normal; font-variant-east-asian: normal;&quot;&gt;&lt;/span&gt;&lt;/p&gt;&lt;/td&gt;&lt;/tr&gt;&lt;tr&gt;&lt;td valign=&quot;top&quot; width=&quot;120&quot;&gt;&lt;p style=&quot;margin-bottom:0,0000pt;text-align:justify;text-justify:inter-ideograph;&quot; align=&quot;justify&quot; class=&quot;MsoNormal&quot;&gt;&lt;span style=&quot;font-family: &amp;quot;Times New Roman&amp;quot;; font-variant-numeric: normal; font-variant-east-asian: normal;&quot;&gt;ID&lt;/span&gt;&lt;span style=&quot;font-family: &amp;quot;Times New Roman&amp;quot;; font-variant-numeric: normal; font-variant-east-asian: normal;&quot;&gt;_&lt;/span&gt;&lt;span style=&quot;font-family: &amp;quot;Times New Roman&amp;quot;; font-variant-numeric: normal; font-variant-east-asian: normal;&quot;&gt;Medicine&lt;/span&gt;&lt;span style=&quot;font-family:&#39;Times New Roman&#39;;mso-fareast-font-family:Helvetica;font-size:14,0000pt;&quot;&gt;&lt;/span&gt;&lt;/p&gt;&lt;/td&gt;&lt;/tr&gt;&lt;tr&gt;&lt;td valign=&quot;top&quot; width=&quot;120&quot;&gt;&lt;p style=&quot;margin-bottom:0,0000pt;text-align:justify;text-justify:inter-ideograph;&quot; align=&quot;justify&quot; class=&quot;MsoNormal&quot;&gt;&lt;span style=&quot;font-family:&#39;Times New Roman&#39;;mso-fareast-font-family:Helvetica;font-size:14,0000pt;&quot;&gt;Date_order&lt;/span&gt;&lt;span style=&quot;font-family:&#39;Times New Roman&#39;;mso-fareast-font-family:Helvetica;font-size:14,0000pt;&quot;&gt;&lt;/span&gt;&lt;/p&gt;&lt;/td&gt;&lt;/tr&gt;&lt;tr&gt;&lt;td valign=&quot;top&quot; width=&quot;120&quot;&gt;&lt;p style=&quot;margin-bottom:0,0000pt;text-align:justify;text-justify:inter-ideograph;&quot; align=&quot;justify&quot; class=&quot;MsoNormal&quot;&gt;&lt;span style=&quot;font-family: &amp;quot;Times New Roman&amp;quot;; font-variant-numeric: normal; font-variant-east-asian: normal;&quot;&gt;Date_&lt;/span&gt;&lt;span style=&quot;font-family: &amp;quot;Times New Roman&amp;quot;; font-variant-numeric: normal; font-variant-east-asian: normal;&quot;&gt;Shipping&lt;/span&gt;&lt;span style=&quot;font-family:&#39;Times New Roman&#39;;mso-fareast-font-family:Helvetica;font-size:14,0000pt;&quot;&gt;&lt;/span&gt;&lt;/p&gt;&lt;/td&gt;&lt;/tr&gt;&lt;tr&gt;&lt;td valign=&quot;top&quot; width=&quot;120&quot;&gt;&lt;p style=&quot;margin-bottom:0,0000pt;text-align:justify;text-justify:inter-ideograph;&quot; align=&quot;justify&quot; class=&quot;MsoNormal&quot;&gt;&lt;span style=&quot;font-family: &amp;quot;Times New Roman&amp;quot;; font-variant-numeric: normal; font-variant-east-asian: normal;&quot;&gt;Service&lt;/span&gt;&lt;span style=&quot;font-family: &amp;quot;Times New Roman&amp;quot;; font-variant-numeric: normal; font-variant-east-asian: normal;&quot;&gt;_&lt;/span&gt;&lt;span style=&quot;font-family: &amp;quot;Times New Roman&amp;quot;; font-variant-numeric: normal; font-variant-east-asian: normal;&quot;&gt;status&lt;/span&gt;&lt;span style=&quot;font-family:&#39;Times New Roman&#39;;mso-fareast-font-family:Helvetica;font-size:14,0000pt;&quot;&gt;&lt;/span&gt;&lt;/p&gt;&lt;/td&gt;&lt;/tr&gt;&lt;tr&gt;&lt;td valign=&quot;top&quot; width=&quot;120&quot;&gt;&lt;p style=&quot;margin-bottom:0,0000pt;text-align:justify;text-justify:inter-ideograph;&quot; align=&quot;justify&quot; class=&quot;MsoNormal&quot;&gt;&lt;span style=&quot;font-family: &amp;quot;Times New Roman&amp;quot;; font-variant-numeric: normal; font-variant-east-asian: normal;&quot;&gt;Count&lt;/span&gt;&lt;span style=&quot;font-family:&#39;Times New Roman&#39;;mso-fareast-font-family:Calibri;font-size:14,0000pt;&quot;&gt;&lt;br&gt;&lt;/span&gt;&lt;span style=&quot;font-family: &amp;quot;Times New Roman&amp;quot;; font-variant-numeric: normal; font-variant-east-asian: normal;&quot;&gt;&lt;/span&gt;&lt;/p&gt;&lt;/td&gt;&lt;/tr&gt;&lt;tr&gt;&lt;td valign=&quot;top&quot; width=&quot;120&quot;&gt;&lt;p style=&quot;margin-bottom:0,0000pt;text-align:justify;text-justify:inter-ideograph;&quot; align=&quot;justify&quot; class=&quot;MsoNormal&quot;&gt;&lt;span style=&quot;font-family: &amp;quot;Times New Roman&amp;quot;; font-variant-numeric: normal; font-variant-east-asian: normal;&quot;&gt;Order&lt;/span&gt;&lt;span style=&quot;font-family: &amp;quot;Times New Roman&amp;quot;; font-variant-numeric: normal; font-variant-east-asian: normal;&quot;&gt;_&lt;/span&gt;&lt;span style=&quot;font-family: &amp;quot;Times New Roman&amp;quot;; font-variant-numeric: normal; font-variant-east-asian: normal;&quot;&gt;status&lt;/span&gt;&lt;span style=&quot;font-family:&#39;Times New Roman&#39;;mso-fareast-font-family:Helvetica;font-size:14,0000pt;&quot;&gt;&lt;/span&gt;&lt;/p&gt;&lt;/td&gt;&lt;/tr&gt;&lt;/tbody&gt;&lt;/table&gt;&lt;/font&gt;" style="rounded=0;whiteSpace=wrap;html=1;labelBackgroundColor=#FFFFFF;" parent="1" vertex="1">
          <mxGeometry x="470" y="-280" width="230" height="270" as="geometry" />
        </mxCell>
        <mxCell id="3cQ0suxEUUUy-fI5HbAc-12" value="История покупок" style="rounded=0;whiteSpace=wrap;html=1;labelBackgroundColor=#FFFFFF;" parent="1" vertex="1">
          <mxGeometry x="790" y="60" width="200" height="60" as="geometry" />
        </mxCell>
        <mxCell id="3cQ0suxEUUUy-fI5HbAc-13" value="&lt;font style=&quot;letter-spacing: 0px; text-align: left; font-size: 16px; font-family: themed; direction: ltr; line-height: 19.2px; opacity: 1;&quot;&gt;&lt;p style=&quot;margin-bottom:0,0000pt;text-align:justify;text-justify:inter-ideograph;&quot; align=&quot;justify&quot; class=&quot;MsoNormal&quot;&gt;ID&lt;span style=&quot;font-family: &amp;quot;Times New Roman&amp;quot;; font-variant-numeric: normal; font-variant-east-asian: normal;&quot;&gt;_&lt;/span&gt;&lt;span style=&quot;font-family: &amp;quot;Times New Roman&amp;quot;; font-variant-numeric: normal; font-variant-east-asian: normal;&quot;&gt;Purchase&lt;/span&gt;&lt;span&gt;&lt;/span&gt;&lt;/p&gt;&lt;p style=&quot;margin-bottom:0,0000pt;text-align:justify;text-justify:inter-ideograph;&quot; align=&quot;justify&quot; class=&quot;MsoNormal&quot;&gt;&lt;span style=&quot;font-family: &amp;quot;Times New Roman&amp;quot;; font-variant-numeric: normal; font-variant-east-asian: normal;&quot;&gt;&lt;/span&gt;&lt;/p&gt;&lt;p style=&quot;margin-bottom:0,0000pt;text-align:justify;text-justify:inter-ideograph;&quot; align=&quot;justify&quot; class=&quot;MsoNormal&quot;&gt;ID&lt;span style=&quot;font-family: &amp;quot;Times New Roman&amp;quot;; font-variant-numeric: normal; font-variant-east-asian: normal;&quot;&gt;_&lt;/span&gt;&lt;span style=&quot;font-family: &amp;quot;Times New Roman&amp;quot;; font-variant-numeric: normal; font-variant-east-asian: normal;&quot;&gt;Medicine&lt;/span&gt;&lt;span&gt;&lt;/span&gt;&lt;/p&gt;&lt;p style=&quot;margin-bottom:0,0000pt;text-align:justify;text-justify:inter-ideograph;&quot; align=&quot;justify&quot; class=&quot;MsoNormal&quot;&gt;&lt;span style=&quot;font-family: &amp;quot;Times New Roman&amp;quot;; font-variant-numeric: normal; font-variant-east-asian: normal;&quot;&gt;&lt;/span&gt;&lt;/p&gt;&lt;p style=&quot;margin-bottom:0,0000pt;text-align:justify;text-justify:inter-ideograph;&quot; align=&quot;justify&quot; class=&quot;MsoNormal&quot;&gt;ID&lt;span style=&quot;font-family: &amp;quot;Times New Roman&amp;quot;; font-variant-numeric: normal; font-variant-east-asian: normal;&quot;&gt;_Client&lt;/span&gt;&lt;span&gt;&lt;/span&gt;&lt;/p&gt;&lt;p style=&quot;margin-bottom:0,0000pt;text-align:justify;text-justify:inter-ideograph;&quot; align=&quot;justify&quot; class=&quot;MsoNormal&quot;&gt;&lt;span style=&quot;font-family: &amp;quot;Times New Roman&amp;quot;; font-variant-numeric: normal; font-variant-east-asian: normal;&quot;&gt;&lt;/span&gt;&lt;/p&gt;&lt;p style=&quot;margin-bottom:0,0000pt;text-align:justify;text-justify:inter-ideograph;&quot; align=&quot;justify&quot; class=&quot;MsoNormal&quot;&gt;Date&lt;span&gt;&lt;/span&gt;&lt;/p&gt;&lt;/font&gt;" style="rounded=0;whiteSpace=wrap;html=1;labelBackgroundColor=#FFFFFF;" parent="1" vertex="1">
          <mxGeometry x="790" y="120" width="200" height="160" as="geometry" />
        </mxCell>
        <mxCell id="3cQ0suxEUUUy-fI5HbAc-14" value="Клиенты" style="rounded=0;whiteSpace=wrap;html=1;labelBackgroundColor=#FFFFFF;" parent="1" vertex="1">
          <mxGeometry x="1121" y="40" width="209" height="60" as="geometry" />
        </mxCell>
        <mxCell id="3cQ0suxEUUUy-fI5HbAc-15" value="&lt;font style=&quot;letter-spacing: 0px; text-align: left; font-size: 8px; font-family: themed; direction: ltr; line-height: 19.2px; opacity: 1;&quot;&gt;&lt;table cellspacing=&quot;0&quot; border=&quot;1&quot; class=&quot;MsoTableGrid&quot;&gt;&lt;tbody&gt;&lt;tr&gt;&lt;td valign=&quot;top&quot; width=&quot;120&quot;&gt;&lt;p style=&quot;margin-bottom:0,0000pt;text-align:justify;text-justify:inter-ideograph;&quot; align=&quot;justify&quot; class=&quot;MsoNormal&quot;&gt;I&lt;span style=&quot;font-family: &amp;quot;Times New Roman&amp;quot;; font-variant-numeric: normal; font-variant-east-asian: normal;&quot;&gt;D_Client&lt;/span&gt;&lt;span style=&quot;font-family:&#39;Times New Roman&#39;;mso-fareast-font-family:Helvetica;font-size:14,0000pt;&quot;&gt;&lt;/span&gt;&lt;/p&gt;&lt;/td&gt;&lt;/tr&gt;&lt;tr&gt;&lt;td valign=&quot;top&quot; width=&quot;120&quot;&gt;&lt;p style=&quot;margin-bottom:0,0000pt;text-align:justify;text-justify:inter-ideograph;&quot; align=&quot;justify&quot; class=&quot;MsoNormal&quot;&gt;&lt;span style=&quot;font-family:&#39;Times New Roman&#39;;mso-fareast-font-family:Helvetica;font-size:14,0000pt;&quot;&gt;Last_Name&lt;/span&gt;&lt;span style=&quot;font-family:&#39;Times New Roman&#39;;mso-fareast-font-family:Helvetica;font-size:14,0000pt;&quot;&gt;&lt;/span&gt;&lt;/p&gt;&lt;/td&gt;&lt;/tr&gt;&lt;tr&gt;&lt;td valign=&quot;top&quot; width=&quot;120&quot;&gt;&lt;p style=&quot;margin-bottom:0,0000pt;text-align:justify;text-justify:inter-ideograph;&quot; align=&quot;justify&quot; class=&quot;MsoNormal&quot;&gt;&lt;span style=&quot;font-family:&#39;Times New Roman&#39;;mso-fareast-font-family:Helvetica;font-size:14,0000pt;&quot;&gt;First_name&lt;/span&gt;&lt;span style=&quot;font-family:&#39;Times New Roman&#39;;mso-fareast-font-family:Helvetica;font-size:14,0000pt;&quot;&gt;&lt;/span&gt;&lt;/p&gt;&lt;/td&gt;&lt;/tr&gt;&lt;tr&gt;&lt;td valign=&quot;top&quot; width=&quot;120&quot;&gt;&lt;p style=&quot;margin-bottom:0,0000pt;text-align:justify;text-justify:inter-ideograph;&quot; align=&quot;justify&quot; class=&quot;MsoNormal&quot;&gt;&lt;span style=&quot;font-family: &amp;quot;Times New Roman&amp;quot;; font-variant-numeric: normal; font-variant-east-asian: normal;&quot;&gt;Surname&lt;/span&gt;&lt;span style=&quot;font-family:&#39;Times New Roman&#39;;mso-fareast-font-family:Helvetica;font-size:14,0000pt;&quot;&gt;&lt;/span&gt;&lt;/p&gt;&lt;/td&gt;&lt;/tr&gt;&lt;tr&gt;&lt;td valign=&quot;top&quot; width=&quot;120&quot;&gt;&lt;p style=&quot;margin-bottom:0,0000pt;text-align:justify;text-justify:inter-ideograph;&quot; align=&quot;justify&quot; class=&quot;MsoNormal&quot;&gt;&lt;span style=&quot;font-family: &amp;quot;Times New Roman&amp;quot;; font-variant-numeric: normal; font-variant-east-asian: normal;&quot;&gt;Number_Phone&lt;/span&gt;&lt;span style=&quot;font-family:&#39;Times New Roman&#39;;mso-fareast-font-family:Helvetica;font-size:14,0000pt;&quot;&gt;&lt;/span&gt;&lt;/p&gt;&lt;/td&gt;&lt;/tr&gt;&lt;tr&gt;&lt;td valign=&quot;top&quot; width=&quot;120&quot;&gt;&lt;p style=&quot;margin-bottom:0,0000pt;text-align:justify;text-justify:inter-ideograph;&quot; align=&quot;justify&quot; class=&quot;MsoNormal&quot;&gt;&lt;span style=&quot;font-family:&#39;Times New Roman&#39;;mso-fareast-font-family:Helvetica;font-size:14,0000pt;&quot;&gt;Email&lt;/span&gt;&lt;span style=&quot;font-family:&#39;Times New Roman&#39;;mso-fareast-font-family:Helvetica;font-size:14,0000pt;&quot;&gt;&lt;/span&gt;&lt;/p&gt;&lt;/td&gt;&lt;/tr&gt;&lt;tr&gt;&lt;td valign=&quot;top&quot; width=&quot;120&quot;&gt;&lt;p style=&quot;margin-bottom:0,0000pt;text-align:justify;text-justify:inter-ideograph;&quot; align=&quot;justify&quot; class=&quot;MsoNormal&quot;&gt;&lt;span style=&quot;font-family: &amp;quot;Times New Roman&amp;quot;; font-variant-numeric: normal; font-variant-east-asian: normal;&quot;&gt;Amountf&lt;/span&gt;&lt;span style=&quot;font-family: &amp;quot;Times New Roman&amp;quot;; font-variant-numeric: normal; font-variant-east-asian: normal;&quot;&gt;_&lt;/span&gt;&lt;span style=&quot;font-family: &amp;quot;Times New Roman&amp;quot;; font-variant-numeric: normal; font-variant-east-asian: normal;&quot;&gt;discount&lt;/span&gt;&lt;span style=&quot;font-family:&#39;Times New Roman&#39;;mso-fareast-font-family:Helvetica;font-size:14,0000pt;&quot;&gt;&lt;/span&gt;&lt;/p&gt;&lt;/td&gt;&lt;/tr&gt;&lt;/tbody&gt;&lt;/table&gt;&lt;/font&gt;" style="rounded=0;whiteSpace=wrap;html=1;labelBackgroundColor=#FFFFFF;" parent="1" vertex="1">
          <mxGeometry x="1121" y="100" width="209" height="270" as="geometry" />
        </mxCell>
        <mxCell id="3cQ0suxEUUUy-fI5HbAc-16" value="Запись на прием" style="rounded=0;whiteSpace=wrap;html=1;labelBackgroundColor=#FFFFFF;" parent="1" vertex="1">
          <mxGeometry x="1470" y="20" width="250" height="60" as="geometry" />
        </mxCell>
        <mxCell id="3cQ0suxEUUUy-fI5HbAc-17" value="&lt;font style=&quot;letter-spacing: 0px; text-align: left; font-size: 9px; font-family: calibri; direction: ltr; line-height: 19.2px; opacity: 1;&quot;&gt;&lt;table cellspacing=&quot;0&quot; border=&quot;1&quot; class=&quot;MsoTableGrid&quot;&gt;&lt;tbody&gt;&lt;tr&gt;&lt;td valign=&quot;top&quot; width=&quot;120&quot;&gt;&lt;p style=&quot;margin-bottom:0,0000pt;text-align:justify;text-justify:inter-ideograph;&quot; align=&quot;justify&quot; class=&quot;MsoNormal&quot;&gt;ID&lt;span style=&quot;font-family: &amp;quot;Times New Roman&amp;quot;; font-variant-numeric: normal; font-variant-east-asian: normal;&quot;&gt;_&lt;/span&gt;&lt;span style=&quot;font-family: &amp;quot;Times New Roman&amp;quot;; font-variant-numeric: normal; font-variant-east-asian: normal;&quot;&gt;Record&lt;/span&gt;&lt;span style=&quot;font-family: &amp;quot;Times New Roman&amp;quot;; font-variant-numeric: normal; font-variant-east-asian: normal;&quot;&gt;&lt;/span&gt;&lt;/p&gt;&lt;/td&gt;&lt;/tr&gt;&lt;tr&gt;&lt;td valign=&quot;top&quot; width=&quot;120&quot;&gt;&lt;p style=&quot;margin-bottom:0,0000pt;text-align:justify;text-justify:inter-ideograph;&quot; align=&quot;justify&quot; class=&quot;MsoNormal&quot;&gt;&lt;span style=&quot;font-family: &amp;quot;Times New Roman&amp;quot;; font-variant-numeric: normal; font-variant-east-asian: normal;&quot;&gt;ID&lt;/span&gt;&lt;span style=&quot;font-family: &amp;quot;Times New Roman&amp;quot;; font-variant-numeric: normal; font-variant-east-asian: normal;&quot;&gt;_&lt;/span&gt;&lt;span style=&quot;font-family: &amp;quot;Times New Roman&amp;quot;; font-variant-numeric: normal; font-variant-east-asian: normal;&quot;&gt;Employee&lt;/span&gt;&lt;span style=&quot;font-family: &amp;quot;Times New Roman&amp;quot;; font-variant-numeric: normal; font-variant-east-asian: normal;&quot;&gt;&lt;/span&gt;&lt;/p&gt;&lt;/td&gt;&lt;/tr&gt;&lt;tr&gt;&lt;td valign=&quot;top&quot; width=&quot;120&quot;&gt;&lt;p style=&quot;margin-bottom:0,0000pt;text-align:justify;text-justify:inter-ideograph;&quot; align=&quot;justify&quot; class=&quot;MsoNormal&quot;&gt;&lt;span style=&quot;font-family: &amp;quot;Times New Roman&amp;quot;; font-variant-numeric: normal; font-variant-east-asian: normal;&quot;&gt;ID&lt;/span&gt;&lt;span style=&quot;font-family: &amp;quot;Times New Roman&amp;quot;; font-variant-numeric: normal; font-variant-east-asian: normal;&quot;&gt;_S&lt;/span&gt;&lt;span style=&quot;font-family: &amp;quot;Times New Roman&amp;quot;; font-variant-numeric: normal; font-variant-east-asian: normal;&quot;&gt;pecialist&lt;/span&gt;&lt;span style=&quot;font-family: &amp;quot;Times New Roman&amp;quot;; font-variant-numeric: normal; font-variant-east-asian: normal;&quot;&gt;&lt;/span&gt;&lt;/p&gt;&lt;/td&gt;&lt;/tr&gt;&lt;tr&gt;&lt;td valign=&quot;top&quot; width=&quot;120&quot;&gt;&lt;p style=&quot;margin-bottom:0,0000pt;text-align:justify;text-justify:inter-ideograph;&quot; align=&quot;justify&quot; class=&quot;MsoNormal&quot;&gt;&lt;span style=&quot;font-family: &amp;quot;Times New Roman&amp;quot;; font-variant-numeric: normal; font-variant-east-asian: normal;&quot;&gt;ID&lt;/span&gt;&lt;span style=&quot;font-family: &amp;quot;Times New Roman&amp;quot;; font-variant-numeric: normal; font-variant-east-asian: normal;&quot;&gt;_&lt;/span&gt;&lt;span style=&quot;font-family: &amp;quot;Times New Roman&amp;quot;; font-variant-numeric: normal; font-variant-east-asian: normal;&quot;&gt;Client&lt;/span&gt;&lt;span style=&quot;font-family: &amp;quot;Times New Roman&amp;quot;; font-variant-numeric: normal; font-variant-east-asian: normal;&quot;&gt;&lt;/span&gt;&lt;/p&gt;&lt;/td&gt;&lt;/tr&gt;&lt;tr&gt;&lt;td valign=&quot;top&quot; width=&quot;120&quot;&gt;&lt;p style=&quot;margin-bottom:0,0000pt;text-align:justify;text-justify:inter-ideograph;&quot; align=&quot;justify&quot; class=&quot;MsoNormal&quot;&gt;&lt;span style=&quot;font-family: &amp;quot;Times New Roman&amp;quot;; font-variant-numeric: normal; font-variant-east-asian: normal;&quot;&gt;Data_&lt;/span&gt;&lt;span style=&quot;font-family: &amp;quot;Times New Roman&amp;quot;; font-variant-numeric: normal; font-variant-east-asian: normal;&quot;&gt;record&lt;/span&gt;&lt;span style=&quot;font-family: &amp;quot;Times New Roman&amp;quot;; font-variant-numeric: normal; font-variant-east-asian: normal;&quot;&gt;&lt;/span&gt;&lt;/p&gt;&lt;/td&gt;&lt;/tr&gt;&lt;tr&gt;&lt;td valign=&quot;top&quot; width=&quot;120&quot;&gt;&lt;p style=&quot;margin-bottom:0,0000pt;text-align:justify;text-justify:inter-ideograph;&quot; align=&quot;justify&quot; class=&quot;MsoNormal&quot;&gt;&lt;span style=&quot;font-family: &amp;quot;Times New Roman&amp;quot;; font-variant-numeric: normal; font-variant-east-asian: normal;&quot;&gt;Data_&lt;/span&gt;&lt;span style=&quot;font-family: &amp;quot;Times New Roman&amp;quot;; font-variant-numeric: normal; font-variant-east-asian: normal;&quot;&gt;receipt&lt;/span&gt;&lt;span style=&quot;font-family: &amp;quot;Times New Roman&amp;quot;; font-variant-numeric: normal; font-variant-east-asian: normal;&quot;&gt;&lt;/span&gt;&lt;/p&gt;&lt;/td&gt;&lt;/tr&gt;&lt;/tbody&gt;&lt;/table&gt;&lt;/font&gt;" style="rounded=0;whiteSpace=wrap;html=1;labelBackgroundColor=#FFFFFF;" parent="1" vertex="1">
          <mxGeometry x="1470" y="80" width="250" height="280" as="geometry" />
        </mxCell>
        <mxCell id="3cQ0suxEUUUy-fI5HbAc-18" value="Договор" style="rounded=0;whiteSpace=wrap;html=1;labelBackgroundColor=#FFFFFF;" parent="1" vertex="1">
          <mxGeometry x="1350" y="-340" width="200" height="60" as="geometry" />
        </mxCell>
        <mxCell id="3cQ0suxEUUUy-fI5HbAc-19" value="&lt;font style=&quot;letter-spacing: 0px; text-align: left; font-size: 16px; font-family: calibri; direction: ltr; line-height: 19.2px; opacity: 1;&quot;&gt;&lt;table style=&quot;border-collapse:collapse;mso-table-layout-alt:fixed;border:none;&lt;br/&gt;mso-border-left-alt:0,5000pt solid rgb(0,0,0);mso-border-top-alt:0,5000pt solid rgb(0,0,0);mso-border-right-alt:0,5000pt solid rgb(0,0,0);&lt;br/&gt;mso-border-bottom-alt:0,5000pt solid rgb(0,0,0);mso-border-insideh:0,5000pt solid rgb(0,0,0);mso-border-insidev:0,5000pt solid rgb(0,0,0);&lt;br/&gt;mso-padding-alt:0,0000pt 5,4000pt 0,0000pt 5,4000pt ;&quot; cellspacing=&quot;0&quot; border=&quot;1&quot; class=&quot;MsoTableGrid&quot;&gt;&lt;tbody&gt;&lt;tr&gt;&lt;td valign=&quot;top&quot; width=&quot;120&quot;&gt;&lt;p style=&quot;margin-bottom:0,0000pt;text-align:justify;text-justify:inter-ideograph;&quot; align=&quot;justify&quot; class=&quot;MsoNormal&quot;&gt;ID&lt;span style=&quot;font-family: &amp;quot;Times New Roman&amp;quot;; font-variant-numeric: normal; font-variant-east-asian: normal;&quot;&gt;_C&lt;/span&gt;&lt;span style=&quot;font-family: &amp;quot;Times New Roman&amp;quot;; font-variant-numeric: normal; font-variant-east-asian: normal;&quot;&gt;ontract&lt;/span&gt;&lt;span style=&quot;font-family: &amp;quot;Times New Roman&amp;quot;; font-variant-numeric: normal; font-variant-east-asian: normal;&quot;&gt;&lt;/span&gt;&lt;/p&gt;&lt;p style=&quot;margin-bottom:0,0000pt;text-align:justify;text-justify:inter-ideograph;&quot; align=&quot;justify&quot; class=&quot;MsoNormal&quot;&gt;&lt;span style=&quot;font-family: &amp;quot;Times New Roman&amp;quot;; font-variant-numeric: normal; font-variant-east-asian: normal;&quot;&gt;&lt;/span&gt;&lt;/p&gt;&lt;table style=&quot;border-collapse:collapse;mso-table-layout-alt:fixed;border:none;&lt;br/&gt;mso-border-left-alt:0,5000pt solid rgb(0,0,0);mso-border-top-alt:0,5000pt solid rgb(0,0,0);mso-border-right-alt:0,5000pt solid rgb(0,0,0);&lt;br/&gt;mso-border-bottom-alt:0,5000pt solid rgb(0,0,0);mso-border-insideh:0,5000pt solid rgb(0,0,0);mso-border-insidev:0,5000pt solid rgb(0,0,0);&lt;br/&gt;mso-padding-alt:0,0000pt 5,4000pt 0,0000pt 5,4000pt ;&quot; cellspacing=&quot;0&quot; border=&quot;1&quot; class=&quot;MsoTableGrid&quot;&gt;&lt;tbody&gt;&lt;tr&gt;&lt;td valign=&quot;top&quot; width=&quot;120&quot;&gt;&lt;p style=&quot;margin-bottom:0,0000pt;text-align:justify;text-justify:inter-ideograph;&quot; align=&quot;justify&quot; class=&quot;MsoNormal&quot;&gt;ID&lt;span style=&quot;font-family: &amp;quot;Times New Roman&amp;quot;; font-variant-numeric: normal; font-variant-east-asian: normal;&quot;&gt;_&lt;/span&gt;&lt;span style=&quot;font-family: &amp;quot;Times New Roman&amp;quot;; font-variant-numeric: normal; font-variant-east-asian: normal;&quot;&gt;Record&lt;/span&gt;&lt;span style=&quot;font-family: &amp;quot;Times New Roman&amp;quot;; font-variant-numeric: normal; font-variant-east-asian: normal;&quot;&gt;&lt;/span&gt;&lt;/p&gt;&lt;p style=&quot;margin-bottom:0,0000pt;text-align:justify;text-justify:inter-ideograph;&quot; align=&quot;justify&quot; class=&quot;MsoNormal&quot;&gt;&lt;span style=&quot;font-family: &amp;quot;Times New Roman&amp;quot;; font-variant-numeric: normal; font-variant-east-asian: normal;&quot;&gt;&lt;/span&gt;&lt;/p&gt;&lt;table style=&quot;border-collapse:collapse;mso-table-layout-alt:fixed;border:none;&lt;br/&gt;mso-border-left-alt:0,5000pt solid rgb(0,0,0);mso-border-top-alt:0,5000pt solid rgb(0,0,0);mso-border-right-alt:0,5000pt solid rgb(0,0,0);&lt;br/&gt;mso-border-bottom-alt:0,5000pt solid rgb(0,0,0);mso-border-insideh:0,5000pt solid rgb(0,0,0);mso-border-insidev:0,5000pt solid rgb(0,0,0);&lt;br/&gt;mso-padding-alt:0,0000pt 5,4000pt 0,0000pt 5,4000pt ;&quot; cellspacing=&quot;0&quot; border=&quot;1&quot; class=&quot;MsoTableGrid&quot;&gt;&lt;tbody&gt;&lt;tr&gt;&lt;td valign=&quot;top&quot; width=&quot;120&quot;&gt;&lt;p style=&quot;margin-bottom:0,0000pt;text-align:justify;text-justify:inter-ideograph;&quot; align=&quot;justify&quot; class=&quot;MsoNormal&quot;&gt;Service&lt;span style=&quot;font-family: &amp;quot;Times New Roman&amp;quot;; font-variant-numeric: normal; font-variant-east-asian: normal;&quot;&gt;_&lt;/span&gt;&lt;span style=&quot;font-family: &amp;quot;Times New Roman&amp;quot;; font-variant-numeric: normal; font-variant-east-asian: normal;&quot;&gt;cost&lt;/span&gt;&lt;span style=&quot;font-family: &amp;quot;Times New Roman&amp;quot;; font-variant-numeric: normal; font-variant-east-asian: normal;&quot;&gt;&lt;/span&gt;&lt;/p&gt;&lt;/td&gt;&lt;/tr&gt;&lt;/tbody&gt;&lt;/table&gt;&lt;/td&gt;&lt;/tr&gt;&lt;/tbody&gt;&lt;/table&gt;&lt;/td&gt;&lt;/tr&gt;&lt;/tbody&gt;&lt;/table&gt;&lt;/font&gt;" style="rounded=0;whiteSpace=wrap;html=1;labelBackgroundColor=#FFFFFF;" parent="1" vertex="1">
          <mxGeometry x="1350" y="-280" width="200" height="170" as="geometry" />
        </mxCell>
        <mxCell id="3cQ0suxEUUUy-fI5HbAc-20" value="Счета" style="rounded=0;whiteSpace=wrap;html=1;labelBackgroundColor=#FFFFFF;" parent="1" vertex="1">
          <mxGeometry x="1090" y="-330" width="170" height="60" as="geometry" />
        </mxCell>
        <mxCell id="3cQ0suxEUUUy-fI5HbAc-21" value="&lt;font style=&quot;letter-spacing: 0px; text-align: left; font-size: 7px; font-family: calibri; direction: ltr; line-height: 19.2px; opacity: 1;&quot;&gt;&lt;table style=&quot;border-collapse:collapse;mso-table-layout-alt:fixed;border:none;&lt;br/&gt;mso-border-left-alt:0,5000pt solid rgb(0,0,0);mso-border-top-alt:0,5000pt solid rgb(0,0,0);mso-border-right-alt:0,5000pt solid rgb(0,0,0);&lt;br/&gt;mso-border-bottom-alt:0,5000pt solid rgb(0,0,0);mso-border-insideh:0,5000pt solid rgb(0,0,0);mso-border-insidev:0,5000pt solid rgb(0,0,0);&lt;br/&gt;mso-padding-alt:0,0000pt 5,4000pt 0,0000pt 5,4000pt ;&quot; cellspacing=&quot;0&quot; border=&quot;1&quot; class=&quot;MsoTableGrid&quot;&gt;&lt;tbody&gt;&lt;tr&gt;&lt;td valign=&quot;top&quot; width=&quot;120&quot;&gt;&lt;p style=&quot;margin-bottom:0,0000pt;text-align:justify;text-justify:inter-ideograph;&quot; align=&quot;justify&quot; class=&quot;MsoNormal&quot;&gt;ID&lt;span style=&quot;font-family: &amp;quot;Times New Roman&amp;quot;; font-variant-numeric: normal; font-variant-east-asian: normal;&quot;&gt;_&lt;/span&gt;&lt;span style=&quot;font-family: &amp;quot;Times New Roman&amp;quot;; font-variant-numeric: normal; font-variant-east-asian: normal;&quot;&gt;Account&lt;/span&gt;&lt;span style=&quot;font-family: &amp;quot;Times New Roman&amp;quot;; font-variant-numeric: normal; font-variant-east-asian: normal;&quot;&gt;&lt;/span&gt;&lt;/p&gt;&lt;/td&gt;&lt;/tr&gt;&lt;tr&gt;&lt;td style=&quot;width:90,1500pt;padding:0,0000pt 5,4000pt 0,0000pt 5,4000pt ;border-left:1,0000pt solid rgb(0,0,0);&lt;br/&gt;mso-border-left-alt:0,5000pt solid rgb(0,0,0);border-right:1,0000pt solid rgb(0,0,0);mso-border-right-alt:0,5000pt solid rgb(0,0,0);&lt;br/&gt;border-top:none;mso-border-top-alt:0,5000pt solid rgb(0,0,0);border-bottom:1,0000pt solid rgb(0,0,0);&lt;br/&gt;mso-border-bottom-alt:0,5000pt solid rgb(0,0,0);&quot; valign=&quot;top&quot; width=&quot;120&quot;&gt;&lt;p style=&quot;margin-bottom:0,0000pt;text-align:justify;text-justify:inter-ideograph;&quot; align=&quot;justify&quot; class=&quot;MsoNormal&quot;&gt;&lt;span style=&quot;font-family: &amp;quot;Times New Roman&amp;quot;; font-variant-numeric: normal; font-variant-east-asian: normal;&quot;&gt;ID&lt;/span&gt;&lt;span style=&quot;font-family: &amp;quot;Times New Roman&amp;quot;; font-variant-numeric: normal; font-variant-east-asian: normal;&quot;&gt;_&lt;/span&gt;&lt;span style=&quot;font-family: &amp;quot;Times New Roman&amp;quot;; font-variant-numeric: normal; font-variant-east-asian: normal;&quot;&gt;treaty&lt;/span&gt;&lt;span style=&quot;font-family: &amp;quot;Times New Roman&amp;quot;; font-variant-numeric: normal; font-variant-east-asian: normal;&quot;&gt;&lt;/span&gt;&lt;/p&gt;&lt;/td&gt;&lt;/tr&gt;&lt;tr&gt;&lt;td style=&quot;width:90,1500pt;padding:0,0000pt 5,4000pt 0,0000pt 5,4000pt ;border-left:1,0000pt solid rgb(0,0,0);&lt;br/&gt;mso-border-left-alt:0,5000pt solid rgb(0,0,0);border-right:1,0000pt solid rgb(0,0,0);mso-border-right-alt:0,5000pt solid rgb(0,0,0);&lt;br/&gt;border-top:none;mso-border-top-alt:0,5000pt solid rgb(0,0,0);border-bottom:1,0000pt solid rgb(0,0,0);&lt;br/&gt;mso-border-bottom-alt:0,5000pt solid rgb(0,0,0);&quot; valign=&quot;top&quot; width=&quot;120&quot;&gt;&lt;p style=&quot;margin-bottom:0,0000pt;text-align:justify;text-justify:inter-ideograph;&quot; align=&quot;justify&quot; class=&quot;MsoNormal&quot;&gt;&lt;span style=&quot;font-family: &amp;quot;Times New Roman&amp;quot;; font-variant-numeric: normal; font-variant-east-asian: normal;&quot;&gt;Invoice_amount&lt;/span&gt;&lt;span style=&quot;font-family: &amp;quot;Times New Roman&amp;quot;; font-variant-numeric: normal; font-variant-east-asian: normal;&quot;&gt;&lt;/span&gt;&lt;/p&gt;&lt;/td&gt;&lt;/tr&gt;&lt;tr&gt;&lt;td style=&quot;width:90,1500pt;padding:0,0000pt 5,4000pt 0,0000pt 5,4000pt ;border-left:1,0000pt solid rgb(0,0,0);&lt;br/&gt;mso-border-left-alt:0,5000pt solid rgb(0,0,0);border-right:1,0000pt solid rgb(0,0,0);mso-border-right-alt:0,5000pt solid rgb(0,0,0);&lt;br/&gt;border-top:none;mso-border-top-alt:0,5000pt solid rgb(0,0,0);border-bottom:1,0000pt solid rgb(0,0,0);&lt;br/&gt;mso-border-bottom-alt:0,5000pt solid rgb(0,0,0);&quot; valign=&quot;top&quot; width=&quot;120&quot;&gt;&lt;p style=&quot;margin-bottom:0,0000pt;text-align:justify;text-justify:inter-ideograph;&quot; align=&quot;justify&quot; class=&quot;MsoNormal&quot;&gt;&lt;span style=&quot;font-family: &amp;quot;Times New Roman&amp;quot;; font-variant-numeric: normal; font-variant-east-asian: normal;&quot;&gt;State&lt;/span&gt;&lt;span style=&quot;font-family: &amp;quot;Times New Roman&amp;quot;; font-variant-numeric: normal; font-variant-east-asian: normal;&quot;&gt;&lt;/span&gt;&lt;/p&gt;&lt;/td&gt;&lt;/tr&gt;&lt;/tbody&gt;&lt;/table&gt;&lt;/font&gt;" style="rounded=0;whiteSpace=wrap;html=1;labelBackgroundColor=#FFFFFF;" parent="1" vertex="1">
          <mxGeometry x="1090" y="-270" width="170" height="150" as="geometry" />
        </mxCell>
        <mxCell id="3cQ0suxEUUUy-fI5HbAc-22" value="Сотрудники" style="rounded=0;whiteSpace=wrap;html=1;labelBackgroundColor=#FFFFFF;" parent="1" vertex="1">
          <mxGeometry x="1950" y="-385" width="210" height="60" as="geometry" />
        </mxCell>
        <mxCell id="3cQ0suxEUUUy-fI5HbAc-23" value="&lt;font style=&quot;letter-spacing: 0px; text-align: left; font-size: 7px; font-family: themed; direction: ltr; line-height: 19.2px; opacity: 1;&quot;&gt;&lt;table style=&quot;border-collapse:collapse;mso-table-layout-alt:fixed;border:none;&lt;br/&gt;mso-border-left-alt:0,5000pt solid rgb(0,0,0);mso-border-top-alt:0,5000pt solid rgb(0,0,0);mso-border-right-alt:0,5000pt solid rgb(0,0,0);&lt;br/&gt;mso-border-bottom-alt:0,5000pt solid rgb(0,0,0);mso-border-insideh:0,5000pt solid rgb(0,0,0);mso-border-insidev:0,5000pt solid rgb(0,0,0);&lt;br/&gt;mso-padding-alt:0,0000pt 5,4000pt 0,0000pt 5,4000pt ;&quot; cellspacing=&quot;0&quot; border=&quot;1&quot; class=&quot;MsoTableGrid&quot;&gt;&lt;tbody&gt;&lt;tr&gt;&lt;td valign=&quot;top&quot; width=&quot;120&quot;&gt;&lt;p style=&quot;margin-bottom:0,0000pt;text-align:justify;text-justify:inter-ideograph;&quot; align=&quot;justify&quot; class=&quot;MsoNormal&quot;&gt;ID&lt;span style=&quot;font-family: &amp;quot;Times New Roman&amp;quot;; font-variant-numeric: normal; font-variant-east-asian: normal;&quot;&gt;_&lt;/span&gt;&lt;span style=&quot;font-family: &amp;quot;Times New Roman&amp;quot;; font-variant-numeric: normal; font-variant-east-asian: normal;&quot;&gt;Employee&lt;/span&gt;&lt;span style=&quot;font-family:&#39;Times New Roman&#39;;mso-fareast-font-family:Helvetica;font-size:14,0000pt;&quot;&gt;&lt;/span&gt;&lt;/p&gt;&lt;/td&gt;&lt;/tr&gt;&lt;tr&gt;&lt;td style=&quot;width:90,1500pt;padding:0,0000pt 5,4000pt 0,0000pt 5,4000pt ;border-left:1,0000pt solid rgb(0,0,0);&lt;br/&gt;mso-border-left-alt:0,5000pt solid rgb(0,0,0);border-right:1,0000pt solid rgb(0,0,0);mso-border-right-alt:0,5000pt solid rgb(0,0,0);&lt;br/&gt;border-top:none;mso-border-top-alt:0,5000pt solid rgb(0,0,0);border-bottom:1,0000pt solid rgb(0,0,0);&lt;br/&gt;mso-border-bottom-alt:0,5000pt solid rgb(0,0,0);&quot; valign=&quot;top&quot; width=&quot;120&quot;&gt;&lt;p style=&quot;margin-bottom:0,0000pt;text-align:justify;text-justify:inter-ideograph;&quot; align=&quot;justify&quot; class=&quot;MsoNormal&quot;&gt;&lt;span style=&quot;font-family: &amp;quot;Times New Roman&amp;quot;; font-variant-numeric: normal; font-variant-east-asian: normal;&quot;&gt;P&lt;/span&gt;&lt;span style=&quot;font-family: &amp;quot;Times New Roman&amp;quot;; font-variant-numeric: normal; font-variant-east-asian: normal;&quot;&gt;osition&lt;/span&gt;&lt;span style=&quot;font-family:&#39;Times New Roman&#39;;mso-fareast-font-family:Helvetica;font-size:14,0000pt;&quot;&gt;&lt;/span&gt;&lt;/p&gt;&lt;/td&gt;&lt;/tr&gt;&lt;tr&gt;&lt;td style=&quot;width:90,1500pt;padding:0,0000pt 5,4000pt 0,0000pt 5,4000pt ;border-left:1,0000pt solid rgb(0,0,0);&lt;br/&gt;mso-border-left-alt:0,5000pt solid rgb(0,0,0);border-right:1,0000pt solid rgb(0,0,0);mso-border-right-alt:0,5000pt solid rgb(0,0,0);&lt;br/&gt;border-top:none;mso-border-top-alt:0,5000pt solid rgb(0,0,0);border-bottom:1,0000pt solid rgb(0,0,0);&lt;br/&gt;mso-border-bottom-alt:0,5000pt solid rgb(0,0,0);&quot; valign=&quot;top&quot; width=&quot;120&quot;&gt;&lt;p style=&quot;margin-bottom:0,0000pt;text-align:justify;text-justify:inter-ideograph;&quot; align=&quot;justify&quot; class=&quot;MsoNormal&quot;&gt;&lt;span style=&quot;font-family: &amp;quot;Times New Roman&amp;quot;; font-variant-numeric: normal; font-variant-east-asian: normal;&quot;&gt;Last_name&lt;/span&gt;&lt;span style=&quot;font-family:&#39;Times New Roman&#39;;mso-fareast-font-family:Helvetica;font-size:14,0000pt;&quot;&gt;&lt;/span&gt;&lt;/p&gt;&lt;/td&gt;&lt;/tr&gt;&lt;tr&gt;&lt;td style=&quot;width:90,1500pt;padding:0,0000pt 5,4000pt 0,0000pt 5,4000pt ;border-left:1,0000pt solid rgb(0,0,0);&lt;br/&gt;mso-border-left-alt:0,5000pt solid rgb(0,0,0);border-right:1,0000pt solid rgb(0,0,0);mso-border-right-alt:0,5000pt solid rgb(0,0,0);&lt;br/&gt;border-top:none;mso-border-top-alt:0,5000pt solid rgb(0,0,0);border-bottom:1,0000pt solid rgb(0,0,0);&lt;br/&gt;mso-border-bottom-alt:0,5000pt solid rgb(0,0,0);&quot; valign=&quot;top&quot; width=&quot;120&quot;&gt;&lt;p style=&quot;margin-bottom:0,0000pt;text-align:justify;text-justify:inter-ideograph;&quot; align=&quot;justify&quot; class=&quot;MsoNormal&quot;&gt;&lt;span style=&quot;font-family:&#39;Times New Roman&#39;;mso-fareast-font-family:Helvetica;font-size:14,0000pt;&quot;&gt;First_name&lt;/span&gt;&lt;span style=&quot;font-family:&#39;Times New Roman&#39;;mso-fareast-font-family:Helvetica;font-size:14,0000pt;&quot;&gt;&lt;/span&gt;&lt;/p&gt;&lt;/td&gt;&lt;/tr&gt;&lt;tr&gt;&lt;td style=&quot;width:90,1500pt;padding:0,0000pt 5,4000pt 0,0000pt 5,4000pt ;border-left:1,0000pt solid rgb(0,0,0);&lt;br/&gt;mso-border-left-alt:0,5000pt solid rgb(0,0,0);border-right:1,0000pt solid rgb(0,0,0);mso-border-right-alt:0,5000pt solid rgb(0,0,0);&lt;br/&gt;border-top:none;mso-border-top-alt:0,5000pt solid rgb(0,0,0);border-bottom:1,0000pt solid rgb(0,0,0);&lt;br/&gt;mso-border-bottom-alt:0,5000pt solid rgb(0,0,0);&quot; valign=&quot;top&quot; width=&quot;120&quot;&gt;&lt;p style=&quot;margin-bottom:0,0000pt;text-align:justify;text-justify:inter-ideograph;&quot; align=&quot;justify&quot; class=&quot;MsoNormal&quot;&gt;&lt;span style=&quot;font-family:&#39;Times New Roman&#39;;mso-fareast-font-family:Helvetica;font-size:14,0000pt;&quot;&gt;Surname&lt;/span&gt;&lt;span style=&quot;font-family:&#39;Times New Roman&#39;;mso-fareast-font-family:Helvetica;font-size:14,0000pt;&quot;&gt;&lt;/span&gt;&lt;/p&gt;&lt;/td&gt;&lt;/tr&gt;&lt;tr&gt;&lt;td style=&quot;width:90,1500pt;padding:0,0000pt 5,4000pt 0,0000pt 5,4000pt ;border-left:1,0000pt solid rgb(0,0,0);&lt;br/&gt;mso-border-left-alt:0,5000pt solid rgb(0,0,0);border-right:1,0000pt solid rgb(0,0,0);mso-border-right-alt:0,5000pt solid rgb(0,0,0);&lt;br/&gt;border-top:none;mso-border-top-alt:0,5000pt solid rgb(0,0,0);border-bottom:1,0000pt solid rgb(0,0,0);&lt;br/&gt;mso-border-bottom-alt:0,5000pt solid rgb(0,0,0);&quot; valign=&quot;top&quot; width=&quot;120&quot;&gt;&lt;p style=&quot;margin-bottom:0,0000pt;text-align:justify;text-justify:inter-ideograph;&quot; align=&quot;justify&quot; class=&quot;MsoNormal&quot;&gt;&lt;span style=&quot;font-family:&#39;Times New Roman&#39;;mso-fareast-font-family:Helvetica;font-size:14,0000pt;&quot;&gt;Address&lt;/span&gt;&lt;span style=&quot;font-family:&#39;Times New Roman&#39;;mso-fareast-font-family:Helvetica;font-size:14,0000pt;&quot;&gt;&lt;/span&gt;&lt;/p&gt;&lt;/td&gt;&lt;/tr&gt;&lt;tr&gt;&lt;td style=&quot;width:90,1500pt;padding:0,0000pt 5,4000pt 0,0000pt 5,4000pt ;border-left:1,0000pt solid rgb(0,0,0);&lt;br/&gt;mso-border-left-alt:0,5000pt solid rgb(0,0,0);border-right:1,0000pt solid rgb(0,0,0);mso-border-right-alt:0,5000pt solid rgb(0,0,0);&lt;br/&gt;border-top:none;mso-border-top-alt:0,5000pt solid rgb(0,0,0);border-bottom:1,0000pt solid rgb(0,0,0);&lt;br/&gt;mso-border-bottom-alt:0,5000pt solid rgb(0,0,0);&quot; valign=&quot;top&quot; width=&quot;120&quot;&gt;&lt;p style=&quot;margin-bottom:0,0000pt;text-align:justify;text-justify:inter-ideograph;&quot; align=&quot;justify&quot; class=&quot;MsoNormal&quot;&gt;&lt;span style=&quot;font-family: &amp;quot;Times New Roman&amp;quot;; font-variant-numeric: normal; font-variant-east-asian: normal;&quot;&gt;Phone_number&lt;/span&gt;&lt;span style=&quot;font-family:&#39;Times New Roman&#39;;mso-fareast-font-family:Helvetica;font-size:14,0000pt;&quot;&gt;&lt;/span&gt;&lt;/p&gt;&lt;/td&gt;&lt;/tr&gt;&lt;tr&gt;&lt;td style=&quot;width:90,1500pt;padding:0,0000pt 5,4000pt 0,0000pt 5,4000pt ;border-left:1,0000pt solid rgb(0,0,0);&lt;br/&gt;mso-border-left-alt:0,5000pt solid rgb(0,0,0);border-right:1,0000pt solid rgb(0,0,0);mso-border-right-alt:0,5000pt solid rgb(0,0,0);&lt;br/&gt;border-top:none;mso-border-top-alt:0,5000pt solid rgb(0,0,0);border-bottom:1,0000pt solid rgb(0,0,0);&lt;br/&gt;mso-border-bottom-alt:0,5000pt solid rgb(0,0,0);&quot; valign=&quot;top&quot; width=&quot;120&quot;&gt;&lt;p style=&quot;margin-bottom:0,0000pt;text-align:justify;text-justify:inter-ideograph;&quot; align=&quot;justify&quot; class=&quot;MsoNormal&quot;&gt;&lt;span style=&quot;font-family: &amp;quot;Times New Roman&amp;quot;; font-variant-numeric: normal; font-variant-east-asian: normal;&quot;&gt;Email&lt;/span&gt;&lt;span style=&quot;font-family:&#39;Times New Roman&#39;;mso-fareast-font-family:Helvetica;font-size:14,0000pt;&quot;&gt;&lt;/span&gt;&lt;/p&gt;&lt;/td&gt;&lt;/tr&gt;&lt;/tbody&gt;&lt;/table&gt;&lt;/font&gt;" style="rounded=0;whiteSpace=wrap;html=1;labelBackgroundColor=#FFFFFF;" parent="1" vertex="1">
          <mxGeometry x="1950" y="-325" width="210" height="300" as="geometry" />
        </mxCell>
        <mxCell id="3cQ0suxEUUUy-fI5HbAc-24" value="Специалист" style="rounded=0;whiteSpace=wrap;html=1;labelBackgroundColor=#FFFFFF;" parent="1" vertex="1">
          <mxGeometry x="1915" y="70" width="200" height="60" as="geometry" />
        </mxCell>
        <mxCell id="3cQ0suxEUUUy-fI5HbAc-25" value="&lt;font style=&quot;letter-spacing: 0px; text-align: left; font-size: 7px; font-family: themed; direction: ltr; line-height: 19.2px; opacity: 1;&quot;&gt;&lt;table style=&quot;border-collapse:collapse;mso-table-layout-alt:fixed;border:none;&lt;br/&gt;mso-border-left-alt:0,5000pt solid rgb(0,0,0);mso-border-top-alt:0,5000pt solid rgb(0,0,0);mso-border-right-alt:0,5000pt solid rgb(0,0,0);&lt;br/&gt;mso-border-bottom-alt:0,5000pt solid rgb(0,0,0);mso-border-insideh:0,5000pt solid rgb(0,0,0);mso-border-insidev:0,5000pt solid rgb(0,0,0);&lt;br/&gt;mso-padding-alt:0,0000pt 5,4000pt 0,0000pt 5,4000pt ;&quot; cellspacing=&quot;0&quot; border=&quot;1&quot; class=&quot;MsoTableGrid&quot;&gt;&lt;tbody&gt;&lt;tr&gt;&lt;td valign=&quot;top&quot; width=&quot;120&quot;&gt;&lt;p style=&quot;margin-bottom:0,0000pt;text-align:justify;text-justify:inter-ideograph;&quot; align=&quot;justify&quot; class=&quot;MsoNormal&quot;&gt;ID&lt;span style=&quot;font-family: &amp;quot;Times New Roman&amp;quot;; font-variant-numeric: normal; font-variant-east-asian: normal;&quot;&gt;_&lt;/span&gt;&lt;span style=&quot;font-family: &amp;quot;Times New Roman&amp;quot;; font-variant-numeric: normal; font-variant-east-asian: normal;&quot;&gt;S&lt;/span&gt;&lt;span style=&quot;font-family: &amp;quot;Times New Roman&amp;quot;; font-variant-numeric: normal; font-variant-east-asian: normal;&quot;&gt;pecialist&lt;/span&gt;&lt;span style=&quot;font-family:&#39;Times New Roman&#39;;mso-fareast-font-family:Calibri;font-size:14,0000pt;&quot;&gt;&lt;br&gt;&lt;/span&gt;&lt;span style=&quot;font-family: &amp;quot;Times New Roman&amp;quot;; font-variant-numeric: normal; font-variant-east-asian: normal;&quot;&gt;&lt;/span&gt;&lt;/p&gt;&lt;/td&gt;&lt;/tr&gt;&lt;tr&gt;&lt;td style=&quot;width:90,1500pt;padding:0,0000pt 5,4000pt 0,0000pt 5,4000pt ;border-left:1,0000pt solid rgb(0,0,0);&lt;br/&gt;mso-border-left-alt:0,5000pt solid rgb(0,0,0);border-right:1,0000pt solid rgb(0,0,0);mso-border-right-alt:0,5000pt solid rgb(0,0,0);&lt;br/&gt;border-top:none;mso-border-top-alt:0,5000pt solid rgb(0,0,0);border-bottom:1,0000pt solid rgb(0,0,0);&lt;br/&gt;mso-border-bottom-alt:0,5000pt solid rgb(0,0,0);&quot; valign=&quot;top&quot; width=&quot;120&quot;&gt;&lt;p style=&quot;margin-bottom:0,0000pt;text-align:justify;text-justify:inter-ideograph;&quot; align=&quot;justify&quot; class=&quot;MsoNormal&quot;&gt;&lt;span style=&quot;font-family: &amp;quot;Times New Roman&amp;quot;; font-variant-numeric: normal; font-variant-east-asian: normal;&quot;&gt;Last_name&lt;/span&gt;&lt;span style=&quot;font-family:&#39;Times New Roman&#39;;mso-fareast-font-family:Calibri;font-size:14,0000pt;&quot;&gt;&lt;/span&gt;&lt;/p&gt;&lt;/td&gt;&lt;/tr&gt;&lt;tr&gt;&lt;td style=&quot;width:90,1500pt;padding:0,0000pt 5,4000pt 0,0000pt 5,4000pt ;border-left:1,0000pt solid rgb(0,0,0);&lt;br/&gt;mso-border-left-alt:0,5000pt solid rgb(0,0,0);border-right:1,0000pt solid rgb(0,0,0);mso-border-right-alt:0,5000pt solid rgb(0,0,0);&lt;br/&gt;border-top:none;mso-border-top-alt:0,5000pt solid rgb(0,0,0);border-bottom:1,0000pt solid rgb(0,0,0);&lt;br/&gt;mso-border-bottom-alt:0,5000pt solid rgb(0,0,0);&quot; valign=&quot;top&quot; width=&quot;120&quot;&gt;&lt;p style=&quot;margin-bottom:0,0000pt;text-align:justify;text-justify:inter-ideograph;&quot; align=&quot;justify&quot; class=&quot;MsoNormal&quot;&gt;&lt;span style=&quot;font-family:&#39;Times New Roman&#39;;mso-fareast-font-family:Helvetica;font-size:14,0000pt;&quot;&gt;First_name&lt;/span&gt;&lt;span style=&quot;font-family:&#39;Times New Roman&#39;;mso-fareast-font-family:Calibri;font-size:14,0000pt;&quot;&gt;&lt;/span&gt;&lt;/p&gt;&lt;/td&gt;&lt;/tr&gt;&lt;tr&gt;&lt;td style=&quot;width:90,1500pt;padding:0,0000pt 5,4000pt 0,0000pt 5,4000pt ;border-left:1,0000pt solid rgb(0,0,0);&lt;br/&gt;mso-border-left-alt:0,5000pt solid rgb(0,0,0);border-right:1,0000pt solid rgb(0,0,0);mso-border-right-alt:0,5000pt solid rgb(0,0,0);&lt;br/&gt;border-top:none;mso-border-top-alt:0,5000pt solid rgb(0,0,0);border-bottom:1,0000pt solid rgb(0,0,0);&lt;br/&gt;mso-border-bottom-alt:0,5000pt solid rgb(0,0,0);&quot; valign=&quot;top&quot; width=&quot;120&quot;&gt;&lt;p style=&quot;margin-bottom:0,0000pt;text-align:justify;text-justify:inter-ideograph;&quot; align=&quot;justify&quot; class=&quot;MsoNormal&quot;&gt;&lt;span style=&quot;font-family:&#39;Times New Roman&#39;;mso-fareast-font-family:Helvetica;font-size:14,0000pt;&quot;&gt;Surname&lt;/span&gt;&lt;span style=&quot;font-family:&#39;Times New Roman&#39;;mso-fareast-font-family:Calibri;font-size:14,0000pt;&quot;&gt;&lt;/span&gt;&lt;/p&gt;&lt;/td&gt;&lt;/tr&gt;&lt;tr&gt;&lt;td style=&quot;width:90,1500pt;padding:0,0000pt 5,4000pt 0,0000pt 5,4000pt ;border-left:1,0000pt solid rgb(0,0,0);&lt;br/&gt;mso-border-left-alt:0,5000pt solid rgb(0,0,0);border-right:1,0000pt solid rgb(0,0,0);mso-border-right-alt:0,5000pt solid rgb(0,0,0);&lt;br/&gt;border-top:none;mso-border-top-alt:0,5000pt solid rgb(0,0,0);border-bottom:1,0000pt solid rgb(0,0,0);&lt;br/&gt;mso-border-bottom-alt:0,5000pt solid rgb(0,0,0);&quot; valign=&quot;top&quot; width=&quot;120&quot;&gt;&lt;p style=&quot;margin-bottom:0,0000pt;text-align:justify;text-justify:inter-ideograph;&quot; align=&quot;justify&quot; class=&quot;MsoNormal&quot;&gt;&lt;span style=&quot;font-family:&#39;Times New Roman&#39;;mso-fareast-font-family:Helvetica;font-size:14,0000pt;&quot;&gt;Address&lt;/span&gt;&lt;span style=&quot;font-family:&#39;Times New Roman&#39;;mso-fareast-font-family:Calibri;font-size:14,0000pt;&quot;&gt;&lt;/span&gt;&lt;/p&gt;&lt;/td&gt;&lt;/tr&gt;&lt;tr&gt;&lt;td style=&quot;width:90,1500pt;padding:0,0000pt 5,4000pt 0,0000pt 5,4000pt ;border-left:1,0000pt solid rgb(0,0,0);&lt;br/&gt;mso-border-left-alt:0,5000pt solid rgb(0,0,0);border-right:1,0000pt solid rgb(0,0,0);mso-border-right-alt:0,5000pt solid rgb(0,0,0);&lt;br/&gt;border-top:none;mso-border-top-alt:0,5000pt solid rgb(0,0,0);border-bottom:1,0000pt solid rgb(0,0,0);&lt;br/&gt;mso-border-bottom-alt:0,5000pt solid rgb(0,0,0);&quot; valign=&quot;top&quot; width=&quot;120&quot;&gt;&lt;p style=&quot;margin-bottom:0,0000pt;text-align:justify;text-justify:inter-ideograph;&quot; align=&quot;justify&quot; class=&quot;MsoNormal&quot;&gt;&lt;span style=&quot;font-family: &amp;quot;Times New Roman&amp;quot;; font-variant-numeric: normal; font-variant-east-asian: normal;&quot;&gt;Phone_number&lt;/span&gt;&lt;span style=&quot;font-family:&#39;Times New Roman&#39;;mso-fareast-font-family:Calibri;font-size:14,0000pt;&quot;&gt;&lt;/span&gt;&lt;/p&gt;&lt;/td&gt;&lt;/tr&gt;&lt;tr&gt;&lt;td style=&quot;width:90,1500pt;padding:0,0000pt 5,4000pt 0,0000pt 5,4000pt ;border-left:1,0000pt solid rgb(0,0,0);&lt;br/&gt;mso-border-left-alt:0,5000pt solid rgb(0,0,0);border-right:1,0000pt solid rgb(0,0,0);mso-border-right-alt:0,5000pt solid rgb(0,0,0);&lt;br/&gt;border-top:none;mso-border-top-alt:0,5000pt solid rgb(0,0,0);border-bottom:1,0000pt solid rgb(0,0,0);&lt;br/&gt;mso-border-bottom-alt:0,5000pt solid rgb(0,0,0);&quot; valign=&quot;top&quot; width=&quot;120&quot;&gt;&lt;p style=&quot;margin-bottom:0,0000pt;text-align:justify;text-justify:inter-ideograph;&quot; align=&quot;justify&quot; class=&quot;MsoNormal&quot;&gt;&lt;span style=&quot;font-family: &amp;quot;Times New Roman&amp;quot;; font-variant-numeric: normal; font-variant-east-asian: normal;&quot;&gt;Email&lt;/span&gt;&lt;span style=&quot;font-family:&#39;Times New Roman&#39;;mso-fareast-font-family:Calibri;font-size:14,0000pt;&quot;&gt;&lt;/span&gt;&lt;/p&gt;&lt;/td&gt;&lt;/tr&gt;&lt;tr&gt;&lt;td style=&quot;width:90,1500pt;padding:0,0000pt 5,4000pt 0,0000pt 5,4000pt ;border-left:1,0000pt solid rgb(0,0,0);&lt;br/&gt;mso-border-left-alt:0,5000pt solid rgb(0,0,0);border-right:1,0000pt solid rgb(0,0,0);mso-border-right-alt:0,5000pt solid rgb(0,0,0);&lt;br/&gt;border-top:none;mso-border-top-alt:0,5000pt solid rgb(0,0,0);border-bottom:1,0000pt solid rgb(0,0,0);&lt;br/&gt;mso-border-bottom-alt:0,5000pt solid rgb(0,0,0);&quot; valign=&quot;top&quot; width=&quot;120&quot;&gt;&lt;p style=&quot;margin-bottom:0,0000pt;text-align:justify;text-justify:inter-ideograph;&quot; align=&quot;justify&quot; class=&quot;MsoNormal&quot;&gt;&lt;span style=&quot;font-family: &amp;quot;Times New Roman&amp;quot;; font-variant-numeric: normal; font-variant-east-asian: normal;&quot;&gt;P&lt;/span&gt;&lt;span style=&quot;font-family: &amp;quot;Times New Roman&amp;quot;; font-variant-numeric: normal; font-variant-east-asian: normal;&quot;&gt;osition&lt;/span&gt;&lt;span style=&quot;font-family:&#39;Times New Roman&#39;;mso-fareast-font-family:Calibri;font-size:14,0000pt;&quot;&gt;&lt;/span&gt;&lt;/p&gt;&lt;/td&gt;&lt;/tr&gt;&lt;tr&gt;&lt;td style=&quot;width:90,1500pt;padding:0,0000pt 5,4000pt 0,0000pt 5,4000pt ;border-left:1,0000pt solid rgb(0,0,0);&lt;br/&gt;mso-border-left-alt:0,5000pt solid rgb(0,0,0);border-right:1,0000pt solid rgb(0,0,0);mso-border-right-alt:0,5000pt solid rgb(0,0,0);&lt;br/&gt;border-top:none;mso-border-top-alt:0,5000pt solid rgb(0,0,0);border-bottom:1,0000pt solid rgb(0,0,0);&lt;br/&gt;mso-border-bottom-alt:0,5000pt solid rgb(0,0,0);&quot; valign=&quot;top&quot; width=&quot;120&quot;&gt;&lt;p style=&quot;margin-bottom:0,0000pt;text-align:justify;text-justify:inter-ideograph;&quot; align=&quot;justify&quot; class=&quot;MsoNormal&quot;&gt;&lt;span style=&quot;font-family: &amp;quot;Times New Roman&amp;quot;; font-variant-numeric: normal; font-variant-east-asian: normal;&quot;&gt;Schedule&lt;/span&gt;&lt;span style=&quot;font-family:&#39;Times New Roman&#39;;mso-fareast-font-family:Calibri;font-size:14,0000pt;&quot;&gt;&lt;/span&gt;&lt;/p&gt;&lt;/td&gt;&lt;/tr&gt;&lt;/tbody&gt;&lt;/table&gt;&lt;/font&gt;" style="rounded=0;whiteSpace=wrap;html=1;labelBackgroundColor=#FFFFFF;" parent="1" vertex="1">
          <mxGeometry x="1915" y="130" width="200" height="345" as="geometry" />
        </mxCell>
        <mxCell id="3cQ0suxEUUUy-fI5HbAc-26" value="Кабинет" style="rounded=0;whiteSpace=wrap;html=1;labelBackgroundColor=#FFFFFF;" parent="1" vertex="1">
          <mxGeometry x="1740" y="530" width="210" height="60" as="geometry" />
        </mxCell>
        <mxCell id="3cQ0suxEUUUy-fI5HbAc-27" value="&lt;font style=&quot;letter-spacing: 0px; text-align: left; font-size: 16px; font-family: calibri; direction: ltr; line-height: 19.2px; opacity: 1;&quot;&gt;&lt;p class=&quot;MsoNormal&quot;&gt;ID&lt;span style=&quot;mso-spacerun:&#39;yes&#39;;font-family:&#39;Times New Roman&#39;;mso-fareast-font-family:Calibri;&lt;br/&gt;font-size:14,0000pt;&quot;&gt;_Cabinet&lt;/span&gt;&lt;/p&gt;&lt;p class=&quot;MsoNormal&quot;&gt;ID&lt;span style=&quot;mso-spacerun:&#39;yes&#39;;font-family:&#39;Times New Roman&#39;;mso-fareast-font-family:Calibri;&lt;br/&gt;font-size:14,0000pt;&quot;&gt;_&lt;/span&gt;&lt;span style=&quot;font-family: &amp;quot;Times New Roman&amp;quot;; font-variant-numeric: normal; font-variant-east-asian: normal;&quot;&gt;S&lt;/span&gt;&lt;span style=&quot;font-family: &amp;quot;Times New Roman&amp;quot;; font-variant-numeric: normal; font-variant-east-asian: normal;&quot;&gt;pecialist&lt;/span&gt;&lt;/p&gt;&lt;p class=&quot;MsoNormal&quot;&gt;&lt;span style=&quot;font-family: &amp;quot;Times New Roman&amp;quot;; font-variant-numeric: normal; font-variant-east-asian: normal;&quot;&gt;&lt;/span&gt;&lt;/p&gt;&lt;p class=&quot;MsoNormal&quot;&gt;ID&lt;span style=&quot;mso-spacerun:&#39;yes&#39;;font-family:&#39;Times New Roman&#39;;mso-fareast-font-family:Calibri;&lt;br/&gt;font-size:14,0000pt;&quot;&gt;_subject&lt;/span&gt;&lt;/p&gt;&lt;/font&gt;" style="rounded=0;whiteSpace=wrap;html=1;labelBackgroundColor=#FFFFFF;" parent="1" vertex="1">
          <mxGeometry x="1740" y="590" width="210" height="150" as="geometry" />
        </mxCell>
        <mxCell id="3cQ0suxEUUUy-fI5HbAc-28" value="Предмет" style="rounded=0;whiteSpace=wrap;html=1;labelBackgroundColor=#FFFFFF;" parent="1" vertex="1">
          <mxGeometry x="2050" y="530" width="170" height="60" as="geometry" />
        </mxCell>
        <mxCell id="3cQ0suxEUUUy-fI5HbAc-29" value="&lt;font style=&quot;letter-spacing: 0px; text-align: left; font-size: 16px; font-family: calibri; direction: ltr; line-height: 19.2px; opacity: 1;&quot;&gt;&lt;p class=&quot;MsoNormal&quot;&gt;ID&lt;span style=&quot;font-family: &amp;quot;Times New Roman&amp;quot;; font-variant-numeric: normal; font-variant-east-asian: normal;&quot;&gt;_Subject&lt;/span&gt;&lt;/p&gt;&lt;p class=&quot;MsoNormal&quot;&gt;&lt;span style=&quot;font-family: &amp;quot;Times New Roman&amp;quot;; font-variant-numeric: normal; font-variant-east-asian: normal;&quot;&gt;&lt;/span&gt;&lt;/p&gt;&lt;p class=&quot;MsoNormal&quot;&gt;Name&lt;/p&gt;&lt;p class=&quot;MsoNormal&quot;&gt;Type&lt;/p&gt;&lt;p style=&quot;margin-bottom:0,0000pt;text-align:justify;text-justify:inter-ideograph;&quot; align=&quot;justify&quot; class=&quot;MsoNormal&quot;&gt;&lt;font face=&quot;Times New Roman&quot;&gt;Сategory&lt;/font&gt;&lt;span style=&quot;mso-spacerun:&#39;yes&#39;;font-family:&#39;Times New Roman&#39;;mso-fareast-font-family:Calibri;&lt;br/&gt;font-size:14,0000pt;&quot;&gt;&lt;/span&gt;&lt;/p&gt;&lt;p class=&quot;MsoNormal&quot;&gt;Shelf_life&lt;/p&gt;&lt;/font&gt;" style="rounded=0;whiteSpace=wrap;html=1;labelBackgroundColor=#FFFFFF;" parent="1" vertex="1">
          <mxGeometry x="2050" y="590" width="170" height="220" as="geometry" />
        </mxCell>
        <mxCell id="3cQ0suxEUUUy-fI5HbAc-30" value="Склад" style="rounded=0;whiteSpace=wrap;html=1;labelBackgroundColor=#FFFFFF;" parent="1" vertex="1">
          <mxGeometry x="2330" y="530" width="150" height="60" as="geometry" />
        </mxCell>
        <mxCell id="3cQ0suxEUUUy-fI5HbAc-31" value="&lt;font style=&quot;letter-spacing: 0px; text-align: left; font-size: 16px; font-family: calibri; direction: ltr; line-height: 19.2px; opacity: 1;&quot;&gt;&lt;p class=&quot;MsoNormal&quot;&gt;ID&lt;span style=&quot;font-family: &amp;quot;Times New Roman&amp;quot;; font-variant-numeric: normal; font-variant-east-asian: normal;&quot;&gt;_&lt;/span&gt;&lt;span style=&quot;font-family: &amp;quot;Times New Roman&amp;quot;; font-variant-numeric: normal; font-variant-east-asian: normal;&quot;&gt;stock&lt;/span&gt;&lt;/p&gt;&lt;p class=&quot;MsoNormal&quot;&gt;&lt;span style=&quot;font-family: &amp;quot;Times New Roman&amp;quot;; font-variant-numeric: normal; font-variant-east-asian: normal;&quot;&gt;&lt;/span&gt;&lt;/p&gt;&lt;p class=&quot;MsoNormal&quot;&gt;ID&lt;span style=&quot;font-family: &amp;quot;Times New Roman&amp;quot;; font-variant-numeric: normal; font-variant-east-asian: normal;&quot;&gt;_&lt;/span&gt;&lt;span style=&quot;font-family: &amp;quot;Times New Roman&amp;quot;; font-variant-numeric: normal; font-variant-east-asian: normal;&quot;&gt;Subject&lt;/span&gt;&lt;/p&gt;&lt;p class=&quot;MsoNormal&quot;&gt;&lt;span style=&quot;font-family: &amp;quot;Times New Roman&amp;quot;; font-variant-numeric: normal; font-variant-east-asian: normal;&quot;&gt;&lt;/span&gt;&lt;/p&gt;&lt;p class=&quot;MsoNormal&quot;&gt;Count&lt;/p&gt;&lt;/font&gt;" style="rounded=0;whiteSpace=wrap;html=1;labelBackgroundColor=#FFFFFF;" parent="1" vertex="1">
          <mxGeometry x="2330" y="590" width="150" height="160" as="geometry" />
        </mxCell>
        <mxCell id="3cQ0suxEUUUy-fI5HbAc-32" value="" style="edgeStyle=orthogonalEdgeStyle;fontSize=12;html=1;endArrow=ERzeroToMany;startArrow=ERmandOne;rounded=0;exitX=-0.009;exitY=0.654;exitDx=0;exitDy=0;exitPerimeter=0;entryX=1;entryY=0.076;entryDx=0;entryDy=0;entryPerimeter=0;" parent="1" source="3cQ0suxEUUUy-fI5HbAc-9" target="3cQ0suxEUUUy-fI5HbAc-7" edge="1">
          <mxGeometry width="100" height="100" relative="1" as="geometry">
            <mxPoint x="450" y="40" as="sourcePoint" />
            <mxPoint x="310" y="170" as="targetPoint" />
          </mxGeometry>
        </mxCell>
        <mxCell id="3cQ0suxEUUUy-fI5HbAc-33" value="" style="edgeStyle=orthogonalEdgeStyle;fontSize=12;html=1;endArrow=ERzeroToMany;startArrow=ERmandOne;rounded=0;entryX=1.009;entryY=0.069;entryDx=0;entryDy=0;entryPerimeter=0;exitX=0.005;exitY=0.338;exitDx=0;exitDy=0;exitPerimeter=0;" parent="1" source="3cQ0suxEUUUy-fI5HbAc-13" target="3cQ0suxEUUUy-fI5HbAc-9" edge="1">
          <mxGeometry width="100" height="100" relative="1" as="geometry">
            <mxPoint x="1080" y="-130" as="sourcePoint" />
            <mxPoint x="720" y="130" as="targetPoint" />
            <Array as="points">
              <mxPoint x="791" y="180" />
              <mxPoint x="750" y="180" />
              <mxPoint x="750" y="128" />
            </Array>
          </mxGeometry>
        </mxCell>
        <mxCell id="3cQ0suxEUUUy-fI5HbAc-34" value="" style="edgeStyle=orthogonalEdgeStyle;fontSize=12;html=1;endArrow=ERzeroToMany;startArrow=ERmandOne;rounded=0;exitX=1.005;exitY=0.681;exitDx=0;exitDy=0;exitPerimeter=0;" parent="1" source="3cQ0suxEUUUy-fI5HbAc-13" edge="1">
          <mxGeometry width="100" height="100" relative="1" as="geometry">
            <mxPoint x="1120" y="-160" as="sourcePoint" />
            <mxPoint x="1120" y="120" as="targetPoint" />
          </mxGeometry>
        </mxCell>
        <mxCell id="3cQ0suxEUUUy-fI5HbAc-35" value="" style="edgeStyle=orthogonalEdgeStyle;fontSize=12;html=1;endArrow=ERzeroToMany;startArrow=ERmandOne;rounded=0;entryX=1.005;entryY=0.085;entryDx=0;entryDy=0;entryPerimeter=0;exitX=0.004;exitY=0.586;exitDx=0;exitDy=0;exitPerimeter=0;" parent="1" source="3cQ0suxEUUUy-fI5HbAc-17" target="3cQ0suxEUUUy-fI5HbAc-15" edge="1">
          <mxGeometry width="100" height="100" relative="1" as="geometry">
            <mxPoint x="1490" y="70" as="sourcePoint" />
            <mxPoint x="1360" y="-80" as="targetPoint" />
          </mxGeometry>
        </mxCell>
        <mxCell id="3cQ0suxEUUUy-fI5HbAc-36" value="" style="edgeStyle=orthogonalEdgeStyle;fontSize=12;html=1;endArrow=ERzeroToMany;startArrow=ERmandOne;rounded=0;exitX=1;exitY=0.443;exitDx=0;exitDy=0;exitPerimeter=0;entryX=-0.01;entryY=0.055;entryDx=0;entryDy=0;entryPerimeter=0;" parent="1" source="3cQ0suxEUUUy-fI5HbAc-17" target="3cQ0suxEUUUy-fI5HbAc-25" edge="1">
          <mxGeometry width="100" height="100" relative="1" as="geometry">
            <mxPoint x="1860" as="sourcePoint" />
            <mxPoint x="1730" y="-150" as="targetPoint" />
          </mxGeometry>
        </mxCell>
        <mxCell id="3cQ0suxEUUUy-fI5HbAc-37" value="" style="edgeStyle=orthogonalEdgeStyle;fontSize=12;html=1;endArrow=ERzeroToMany;startArrow=ERmandOne;rounded=0;exitX=1.016;exitY=0.321;exitDx=0;exitDy=0;exitPerimeter=0;entryX=0;entryY=0.06;entryDx=0;entryDy=0;entryPerimeter=0;" parent="1" source="3cQ0suxEUUUy-fI5HbAc-17" target="3cQ0suxEUUUy-fI5HbAc-23" edge="1">
          <mxGeometry width="100" height="100" relative="1" as="geometry">
            <mxPoint x="1880" y="20" as="sourcePoint" />
            <mxPoint x="1750" y="-130" as="targetPoint" />
            <Array as="points">
              <mxPoint x="1870" y="170" />
              <mxPoint x="1870" y="-307" />
            </Array>
          </mxGeometry>
        </mxCell>
        <mxCell id="3cQ0suxEUUUy-fI5HbAc-38" value="" style="edgeStyle=orthogonalEdgeStyle;fontSize=12;html=1;endArrow=ERzeroToMany;startArrow=ERmandOne;rounded=0;exitX=1;exitY=0.5;exitDx=0;exitDy=0;entryX=1;entryY=0.164;entryDx=0;entryDy=0;entryPerimeter=0;" parent="1" source="3cQ0suxEUUUy-fI5HbAc-19" target="3cQ0suxEUUUy-fI5HbAc-17" edge="1">
          <mxGeometry width="100" height="100" relative="1" as="geometry">
            <mxPoint x="1750" y="-70" as="sourcePoint" />
            <mxPoint x="1620" y="-220" as="targetPoint" />
            <Array as="points">
              <mxPoint x="1590" y="-195" />
              <mxPoint x="1590" y="-70" />
              <mxPoint x="1730" y="-70" />
              <mxPoint x="1730" y="126" />
            </Array>
          </mxGeometry>
        </mxCell>
        <mxCell id="3cQ0suxEUUUy-fI5HbAc-39" value="" style="edgeStyle=orthogonalEdgeStyle;fontSize=12;html=1;endArrow=ERzeroToMany;startArrow=ERmandOne;rounded=0;exitX=0;exitY=0.25;exitDx=0;exitDy=0;entryX=1.012;entryY=0.393;entryDx=0;entryDy=0;entryPerimeter=0;" parent="1" source="3cQ0suxEUUUy-fI5HbAc-19" target="3cQ0suxEUUUy-fI5HbAc-21" edge="1">
          <mxGeometry width="100" height="100" relative="1" as="geometry">
            <mxPoint x="1620" y="-409" as="sourcePoint" />
            <mxPoint x="1490" y="-559" as="targetPoint" />
          </mxGeometry>
        </mxCell>
        <mxCell id="3cQ0suxEUUUy-fI5HbAc-40" value="" style="edgeStyle=orthogonalEdgeStyle;fontSize=12;html=1;endArrow=ERzeroToMany;startArrow=ERmandOne;rounded=0;entryX=-0.004;entryY=0.207;entryDx=0;entryDy=0;entryPerimeter=0;exitX=-0.023;exitY=0.065;exitDx=0;exitDy=0;exitPerimeter=0;" parent="1" source="3cQ0suxEUUUy-fI5HbAc-9" target="3cQ0suxEUUUy-fI5HbAc-11" edge="1">
          <mxGeometry width="100" height="100" relative="1" as="geometry">
            <mxPoint x="420" y="-250" as="sourcePoint" />
            <mxPoint x="290" y="-400" as="targetPoint" />
            <Array as="points">
              <mxPoint x="485" y="120" />
              <mxPoint x="420" y="120" />
              <mxPoint x="420" y="-224" />
            </Array>
          </mxGeometry>
        </mxCell>
        <mxCell id="3cQ0suxEUUUy-fI5HbAc-41" value="" style="edgeStyle=orthogonalEdgeStyle;fontSize=12;html=1;endArrow=ERzeroToMany;startArrow=ERmandOne;rounded=0;entryX=0.995;entryY=0.058;entryDx=0;entryDy=0;entryPerimeter=0;exitX=0;exitY=0.5;exitDx=0;exitDy=0;" parent="1" source="3cQ0suxEUUUy-fI5HbAc-27" target="3cQ0suxEUUUy-fI5HbAc-25" edge="1">
          <mxGeometry width="100" height="100" relative="1" as="geometry">
            <mxPoint x="2390" y="315" as="sourcePoint" />
            <mxPoint x="2260" y="165" as="targetPoint" />
            <Array as="points">
              <mxPoint x="1730" y="665" />
              <mxPoint x="1730" y="500" />
              <mxPoint x="2170" y="500" />
              <mxPoint x="2170" y="150" />
            </Array>
          </mxGeometry>
        </mxCell>
        <mxCell id="3cQ0suxEUUUy-fI5HbAc-42" value="" style="edgeStyle=orthogonalEdgeStyle;fontSize=12;html=1;endArrow=ERzeroToMany;startArrow=ERmandOne;rounded=0;exitX=1;exitY=0.75;exitDx=0;exitDy=0;entryX=0.006;entryY=0.1;entryDx=0;entryDy=0;entryPerimeter=0;" parent="1" source="3cQ0suxEUUUy-fI5HbAc-27" target="3cQ0suxEUUUy-fI5HbAc-29" edge="1">
          <mxGeometry width="100" height="100" relative="1" as="geometry">
            <mxPoint x="2410" y="400" as="sourcePoint" />
            <mxPoint x="2280" y="250" as="targetPoint" />
          </mxGeometry>
        </mxCell>
        <mxCell id="3cQ0suxEUUUy-fI5HbAc-43" value="" style="edgeStyle=orthogonalEdgeStyle;fontSize=12;html=1;endArrow=ERzeroToMany;startArrow=ERmandOne;rounded=0;exitX=0.994;exitY=0.114;exitDx=0;exitDy=0;exitPerimeter=0;entryX=0;entryY=0.5;entryDx=0;entryDy=0;" parent="1" source="3cQ0suxEUUUy-fI5HbAc-29" target="3cQ0suxEUUUy-fI5HbAc-31" edge="1">
          <mxGeometry width="100" height="100" relative="1" as="geometry">
            <mxPoint x="2380" y="440" as="sourcePoint" />
            <mxPoint x="2250" y="290" as="targetPoint" />
          </mxGeometry>
        </mxCell>
      </root>
    </mxGraphModel>
  </diagram>
</mxfile>
